<?xml version="1.0" standalone="no"?>
<!DOCTYPE svg PUBLIC "-//W3C//DTD SVG 1.1//EN" "http://www.w3.org/Graphics/SVG/1.1/DTD/svg11.dtd" >
<!--
2013-9-30: Created.
-->
<svg>
<metadata>
Created by iconfont
</metadata>
<defs>

<font id="iconfont" horiz-adv-x="1024" >
  <font-face
    font-family="iconfont"
    font-weight="500"
    font-stretch="normal"
    units-per-em="1024"
    ascent="896"
    descent="-128"
  />
    <missing-glyph />
    
    <glyph glyph-name="yonghuzhongxin" unicode="&#59001;" d="M345.6 896h-226.742857C53.321143 896 0 842.678857 0 777.142857v-226.742857C0 484.864 53.321143 431.542857 118.857143 431.542857h299.885714c25.234286 0 45.714286 20.48 45.714286 45.714286v299.885714C464.457143 842.678857 411.136 896 345.6 896zM373.028571 522.971429H118.857143a27.501714 27.501714 0 0 0-27.428572 27.428571v226.742857c0 15.140571 12.288 27.428571 27.428572 27.428572h226.742857c15.140571 0 27.428571-12.288 27.428571-27.428572V522.971429zM905.142857 896h-226.742857C612.937143 896 559.542857 842.678857 559.542857 777.142857v-299.885714c0-25.234286 20.48-45.714286 45.714286-45.714286h299.885714c65.536 0 118.857143 53.321143 118.857143 118.857143v226.742857C1024 842.678857 970.678857 896 905.142857 896z m27.428572-345.6a27.794286 27.794286 0 0 0-27.428572-27.428571H650.971429V777.142857c0 15.140571 12.288 27.428571 27.428571 27.428572h226.742857a27.794286 27.794286 0 0 0 27.428572-27.428572v-226.742857zM418.742857 336.457143h-299.885714C53.321143 336.457143 0 283.062857 0 217.6v-226.742857C0-74.678857 53.321143-128 118.857143-128h226.742857c65.536 0 118.857143 53.321143 118.857143 118.857143v299.885714a45.714286 45.714286 0 0 1-45.714286 45.714286zM905.142857 336.457143h-299.885714a45.714286 45.714286 0 0 1-45.714286-45.714286v-299.885714c0-65.536 53.321143-118.857143 118.857143-118.857143h226.742857c65.536 0 118.857143 53.321143 118.857143 118.857143v226.742857c0 65.536-53.321143 118.857143-118.857143 118.857143z m27.428572-345.6a27.794286 27.794286 0 0 0-27.428572-27.428572h-226.742857a27.428571 27.428571 0 0 0-27.428571 27.428572V245.028571h254.171428c15.140571 0 27.428571-12.288 27.428572-27.428571v-226.742857z"  horiz-adv-x="1024" />

    
    <glyph glyph-name="tongjibaobiao" unicode="&#59002;" d="M976.975172 799.142499h-420.008018V850.346955a45.653045 45.653045 0 1 1-91.306091 0v-51.131411H45.653045A45.653045 45.653045 0 0 1 0 753.416409v-624.752796c0-25.273526 20.452564-45.653045 45.653045-45.653046h355.947665l-131.042502-131.91904a45.653045 45.653045 0 1 1 64.717758-64.279488L511.314109 63.945855l176.038143-177.060771a45.506956 45.506956 0 0 1 64.498622-0.219134 45.653045 45.653045 0 0 1 0.219135 64.498622l-131.042502 131.91904h355.947665c25.200481 0 45.653045 20.452564 45.653045 45.653046V753.489453a45.653045 45.653045 0 0 1-45.653045 45.653046z m-45.653046-624.752796H91.306091V707.836408h840.016035v-533.446705zM394.077088 464.085668L222.129458 291.042365a45.653045 45.653045 0 1 1 64.790802-64.279488l139.515707 140.392245 53.614936-53.907116a46.967853 46.967853 0 0 1 64.790802 0l255.657055 257.264041a45.653045 45.653045 0 1 1-64.790803 64.279488L512.482827 410.251597l-53.614937 53.907116a46.967853 46.967853 0 0 1-64.790802 0z"  horiz-adv-x="1024" />

    
    <glyph glyph-name="yunkongzhitai-shouye" unicode="&#59003;" d="M905.947429-127.414857H116.882286a45.714286 45.714286 0 0 0-45.714286 45.714286v625.371428c0 14.043429 6.509714 27.355429 17.627429 35.986286L483.328 886.930286a45.714286 45.714286 0 0 0 56.173714 0l394.532572-307.2c11.117714-8.777143 17.627429-22.016 17.627428-36.132572v-625.371428c0-25.161143-20.48-45.641143-45.714285-45.641143z m-743.350858 91.428571h697.636572V521.216L511.414857 792.941714 162.596571 521.216v-557.202286zM621.129143 82.870857h-219.428572a45.714286 45.714286 0 0 0-45.714285 45.714286v292.571428c0 25.234286 20.48 45.714286 45.714285 45.714286h219.428572c25.234286 0 45.714286-20.48 45.714286-45.714286v-292.571428c0-25.234286-20.48-45.714286-45.714286-45.714286z m-173.714286 91.428572h128v201.142857h-128v-201.142857z"  horiz-adv-x="1024" />

    
    <glyph glyph-name="xiaoxiang" unicode="&#59004;" d="M978.285714 269.677714c25.234286 0 45.714286 20.48 45.714286 45.714286v113.371429c0 56.539429-46.665143 102.4-104.009143 102.4h-128.219428a45.714286 45.714286 0 1 1 0-91.428572h128.219428c6.802286 0 12.580571-4.973714 12.580572-10.971428V354.742857c-67.291429-19.382857-116.589714-80.457143-116.589715-152.649143s49.298286-133.193143 116.589715-152.576v-74.166857c0-5.851429-5.778286-10.971429-12.580572-10.971428H104.009143c-6.802286 0-12.580571 5.12-12.580572 10.971428v74.166857c67.291429 19.382857 116.589714 80.457143 116.589715 152.576S158.72 335.286857 91.428571 354.742857V428.836571c0 5.851429 5.778286 10.971429 12.580572 10.971429h128.219428a45.714286 45.714286 0 1 1 0 91.428571H104.009143C46.665143 531.163429 0 485.229714 0 428.763429v-113.371429c0-25.307429 20.48-45.787429 45.714286-45.787429 39.058286 0 70.875429-30.354286 70.875428-67.657142s-31.817143-67.584-70.875428-67.584a45.714286 45.714286 0 0 1-45.714286-45.714286v-113.371429c0-56.539429 46.665143-102.4 104.009143-102.4h815.981714c57.344 0 104.009143 45.860571 104.009143 102.4v113.371429a45.714286 45.714286 0 0 1-45.714286 45.714286c-39.058286 0-70.875429 30.354286-70.875428 67.584s31.817143 67.657143 70.875428 67.657142zM292.571429 803.693714h438.857142a45.714286 45.714286 0 1 1 0 91.428572H292.571429a45.714286 45.714286 0 1 1 0-91.428572zM512 10.24c25.234286 0 45.714286 20.48 45.714286 45.714286V594.651429l53.613714-53.613715a45.568 45.568 0 0 1 64.658286 0 45.714286 45.714286 0 0 1 0 64.658286l-131.657143 131.657143a45.714286 45.714286 0 0 1-64.658286 0l-131.657143-131.657143a45.714286 45.714286 0 1 1 64.658286-64.658286l53.613714 53.613715v-538.697143c0-25.234286 20.48-45.714286 45.714286-45.714286z"  horiz-adv-x="1024" />

    
    <glyph glyph-name="gongyinglianxietong" unicode="&#59005;" d="M892.656103 309.447537v152.028552c37.787866 17.322484 64.319772 55.329622 64.319771 99.622555 0 60.665239-49.409279 110.001428-110.001427 110.001427-23.754461 0-45.608565-7.747609-63.588865-20.538472L652.041685 726.356602A142.234404 142.234404 0 0 1 512.730906 896a142.234404 142.234404 0 0 1-139.237687-169.716488L242.149322 650.561599a109.051249 109.051249 0 0 1-63.588865 20.465382c-60.665239 0-109.928337-49.263098-109.928337-109.928337 0-44.292934 26.458815-82.300071 64.319772-99.695646v-152.028551a141.79586 141.79586 0 0 1-96.479658-133.828979c0-78.353176 63.735046-142.088223 142.088223-142.088223 35.814418 0 68.120485 13.741042 93.117487 35.595146l132.147895-76.233547c-0.292363-3.36217-1.023269-6.578158-1.023269-10.08651 0-60.665239 49.336188-110.001428 109.928336-110.001428s110.001428 49.336188 110.001428 110.001428c0 3.435261-0.730906 6.72434-1.023269 10.08651l132.147894 76.233547c24.997002-21.927195 57.303069-35.595146 93.117488-35.595146a142.234404 142.234404 0 0 1 142.088223 142.088223 141.79586 141.79586 0 0 1-96.479658 133.902069z m-187.84297-133.902069c0-9.501784 1.09636-18.711206 2.850536-27.628266L576.319772 72.122198a109.635974 109.635974 0 0 1-17.90721 10.305782V234.529622a141.79586 141.79586 0 0 1 93.629123 161.530335l131.343897 75.721913a109.635974 109.635974 0 0 1 17.907209-10.232691v-152.028551a141.79586 141.79586 0 0 1-96.479658-133.90207z m-255.598001-103.42327l-131.343897 75.795004a141.79586 141.79586 0 0 1-93.556032 161.530335v152.028552a109.635974 109.635974 0 0 1 17.834119 10.23269l131.343897-75.795003a141.79586 141.79586 0 0 1 93.556032-161.530336v-151.95546a109.635974 109.635974 0 0 1-17.834119-10.232691z m63.588865 539.774447c35.741328 0 67.974304 13.741042 93.044397 35.595147l132.147894-76.233548c-0.292363-3.435261-1.023269-6.651249-1.023269-10.1596 0-3.435261 0.730906-6.651249 1.023269-10.08651L605.848394 474.778587c-24.997002 21.927195-57.303069 35.668237-93.117488 35.668237s-68.047395-13.741042-93.117487-35.668237L287.611706 551.012134c0.292363 3.435261 1.023269 6.651249 1.023269 10.08651s-0.730906 6.72434-1.023269 10.086509L419.68651 647.491792c24.997002-21.927195 57.303069-35.595146 93.044396-35.595147z m352.735475-50.798001c0-20.465382-37.203141-20.465382-37.203141 0a18.638116 18.638116 0 0 0 37.276231 0zM512.730906 804.636688a50.724911 50.724911 0 1 0 0-101.449821 50.724911 50.724911 0 0 0 0 101.449821zM178.560457 579.736759c10.232691 0 18.638116-8.332334 18.638115-18.638115 0-20.465382-37.276231-20.465382-37.276231 0 0 10.232691 8.405425 18.638116 18.638116 18.638115z m0-454.916202a50.798001 50.798001 0 1 0 0.07309 101.596003 50.798001 50.798001 0 0 0 0-101.596003z m315.605425-142.088223a18.638116 18.638116 0 0 0 37.20314 0c0-20.465382-37.203141-20.465382-37.20314 0z m352.808565 142.088223a50.724911 50.724911 0 1 0 0 101.449821 50.724911 50.724911 0 0 0 0-101.449821z"  horiz-adv-x="1024" />

    
    <glyph glyph-name="jinxiang" unicode="&#59006;" d="M977.936451 268.58522c25.225277 0 45.697965 20.472688 45.697965 45.697965V427.687255c0 56.446126-46.648483 102.363442-103.97201 102.363441h-128.173652a45.697965 45.697965 0 1 1 0-91.39593h128.173652c6.799857 0 12.57608-5.045055 12.57608-10.967511v-74.067262c-67.267404-19.375937-116.54809-80.428418-116.54809-152.594645s49.280685-133.218708 116.54809-152.594645V-25.636558c0-5.84934-5.776223-10.967512-12.57608-10.967512H103.97201c-6.799857 0-12.57608 5.118172-12.57608 10.967512v74.067261c67.267404 19.375937 116.54809 80.428418 116.54809 152.594645S158.663335 334.170939 91.39593 353.546876V427.687255c0 5.922456 5.776223 10.967512 12.57608 10.967511h128.173652a45.697965 45.697965 0 1 1 0 91.39593H103.97201C46.648483 530.050696 0 484.060264 0 427.687255v-113.330954c0-25.225277 20.472688-45.697965 45.697965-45.697965 39.044341 0 70.850125-30.343449 70.850125-67.632988s-31.805784-67.632988-70.850125-67.632988A45.697965 45.697965 0 0 1 0 87.694395v-113.330953c0-56.446126 46.648483-102.363442 103.97201-102.363442h815.690396c57.323527 0 103.97201 45.917315 103.97201 102.363442v113.330953a45.697965 45.697965 0 0 1-45.697965 45.697965c-39.044341 0-70.850125 30.416566-70.850125 67.632988s31.805784 67.632988 70.850125 67.632988zM246.769011 54.79186c0-25.298393 20.472688-45.771082 45.697965-45.771082h438.700464a45.697965 45.697965 0 1 1 0 91.39593H292.466976a45.697965 45.697965 0 0 1-45.697965-45.697965zM479.499607 168.853981a45.697965 45.697965 0 0 1 64.635202 0l131.610139 131.610139a45.697965 45.697965 0 1 1-64.635201 64.635202l-53.594574-53.594574V850.009568a45.697965 45.697965 0 1 1-91.39593 0V311.431632l-53.594573 53.594573a45.697965 45.697965 0 1 1-64.635202-64.562085l131.610139-131.610139z"  horiz-adv-x="1024" />

    
    <glyph glyph-name="fengxianjiankong" unicode="&#59007;" d="M1016.304438 875.781339a45.77203 45.77203 0 0 1-58.494607 15.354834l-560.817039-281.65153a45.77203 45.77203 0 0 1-1.023656-81.161266l69.6817-37.070957-212.920367-133.660176a45.698911 45.698911 0 0 1 2.851612-79.040837l88.034382-46.795685L16.485377-47.263551a45.625793 45.625793 0 0 1 51.767726-74.726859l576.025638 319.526787a45.698911 45.698911 0 0 1-0.731183 80.356966l-71.948366 38.240849 223.449397 143.823614a45.77203 45.77203 0 0 1-3.655913 78.967718l-62.15052 32.464507 279.238628 244.434337a45.625793 45.625793 0 0 1 7.823654 59.883853zM456.584172 350.865365a45.625793 45.625793 0 0 1 3.290322-78.748364l66.464496-35.389237-102.950507-57.032242 30.709668 26.103219a45.698911 45.698911 0 0 1-8.262363 75.092451L368.184198 322.129889l212.993486 133.733294a45.698911 45.698911 0 0 1-2.92473 78.967719l-61.273101 32.610743 161.518232 81.161266-59.737616-52.352672a45.698911 45.698911 0 0 1 8.920427-74.873097l51.767727-27.053755L456.65729 350.865365zM139.76276 402.633091c8.335481 0 16.744081 2.193548 24.275262 6.946235l137.462325 86.279544a45.698911 45.698911 0 0 1-48.69676 77.432236l-137.389207-86.279545a45.698911 45.698911 0 0 1 24.34838-84.37847zM35.496124 344.430958c5.118278-2.193548 10.967739-2.92473 17.548382-2.92473 11.698921 0 23.397843 4.387095 32.172033 13.161286 3.655913 4.387095 7.311826 9.505374 9.505374 14.623652 2.92473 5.849461 3.655913 11.698921 3.655913 17.548382s-0.731183 11.698921-3.655913 17.548381a41.96988 41.96988 0 0 1-9.505374 14.623652 46.430094 46.430094 0 0 1-65.075249 0 45.77203 45.77203 0 0 1 15.354834-74.580623zM824.80772 221.811639L693.560447 139.48048a45.698911 45.698911 0 1 1 48.550523-77.359117l131.320391 82.404277a45.698911 45.698911 0 1 1-48.550523 77.432236zM945.818437 281.549256a42.116117 42.116117 0 0 1-35.096764 0c-5.849461-2.193548-10.236556-5.118278-14.623652-9.505374s-8.043008-9.505374-10.236556-15.354834a43.066654 43.066654 0 0 1 0-34.365581c2.193548-5.849461 5.849461-10.967739 10.236556-15.354834 4.387095-3.655913 8.774191-7.311826 14.623652-9.505374 5.849461-2.193548 11.698921-3.655913 17.548382-3.655913 11.698921 0 24.129025 5.118278 32.172033 13.161287 8.774191 8.774191 13.161286 20.473112 13.161287 32.903216a45.33332 45.33332 0 0 1-13.161287 32.172033 45.187083 45.187083 0 0 1-14.623651 9.505374z"  horiz-adv-x="1024" />

    
    <glyph glyph-name="qiyeguanli" unicode="&#59008;" d="M978.285714-36.571429h-16.457143V539.428571a45.714286 45.714286 0 0 1-45.714285 45.714286H775.314286V850.285714A45.714286 45.714286 0 0 1 729.6 896h-621.714286A45.714286 45.714286 0 0 1 62.171429 850.285714V-36.571429H45.714286a45.714286 45.714286 0 1 1 0-91.428571H978.285714a45.714286 45.714286 0 1 1 0 91.428571zM153.6 804.571429h530.285714v-841.142858h-95.085714V228.571429a45.714286 45.714286 0 0 1-45.714286 45.714285h-248.685714a45.714286 45.714286 0 0 1-45.714286-45.714285v-265.142858H153.6V804.571429z m186.514286-841.142858v219.428572H497.371429v-219.428572H340.114286z m435.2 0V493.714286h95.085714v-530.285715h-95.085714zM294.4 618.057143h248.685714a45.714286 45.714286 0 1 1 0 91.428571h-248.685714a45.714286 45.714286 0 1 1 0-91.428571zM294.4 431.542857h248.685714a45.714286 45.714286 0 1 1 0 91.428572h-248.685714a45.714286 45.714286 0 1 1 0-91.428572z"  horiz-adv-x="1024" />

    
    <glyph glyph-name="fapiaoguanli" unicode="&#59009;" d="M978.285714 462.628571c25.234286 0 45.714286 20.48 45.714286 45.714286V632.685714c0 59.465143-46.665143 107.885714-104.009143 107.885715H104.009143C46.665143 740.571429 0 692.150857 0 632.685714v-124.342857c0-25.234286 20.48-45.714286 45.714286-45.714286 39.058286 0 70.875429-35.254857 70.875428-78.628571S84.772571 305.371429 45.714286 305.371429A45.714286 45.714286 0 0 1 0 259.657143v-124.342857c0-59.465143 46.665143-107.885714 104.009143-107.885715h815.981714c57.344 0 104.009143 48.420571 104.009143 107.885715V259.657143a45.714286 45.714286 0 0 1-45.714286 45.714286c-39.058286 0-70.875429 35.254857-70.875428 78.628571s31.817143 78.628571 70.875428 78.628571zM932.571429 220.891429V135.314286c0-9.728-6.582857-16.457143-12.580572-16.457143H104.009143c-5.924571 0-12.580571 6.729143-12.580572 16.457143V220.891429C158.72 241.517714 208.018286 306.834286 208.018286 384S158.72 526.482286 91.428571 547.181714V632.685714c0 9.728 6.582857 16.457143 12.580572 16.457143h815.981714c5.924571 0 12.580571-6.729143 12.580572-16.457143V547.108571c-67.291429-20.699429-116.589714-86.016-116.589715-163.181714s49.298286-142.482286 116.589715-163.181714zM665.892571 579.876571a72.484571 72.484571 0 0 1-62.756571 36.352H420.864a72.484571 72.484571 0 0 1-62.756571-36.425142L266.678857 419.84a72.557714 72.557714 0 0 1 0-71.826286l91.355429-159.817143a72.557714 72.557714 0 0 1 62.902857-36.498285h182.125714a72.411429 72.411429 0 0 1 62.902857 36.498285l91.355429 159.817143a72.630857 72.630857 0 0 1 0 71.826286l-91.428572 159.963429z m-73.874285-336.676571H431.981714L351.524571 384l80.457143 140.8h160.109715L672.548571 384l-80.457142-140.8zM396.580571 384c0-63.634286 51.785143-115.419429 115.419429-115.419429S627.419429 320.365714 627.419429 384 575.634286 499.419429 512 499.419429 396.580571 447.634286 396.580571 384z m139.410286 0a23.990857 23.990857 0 1 0-47.981714 0 23.990857 23.990857 0 0 0 47.981714 0z"  horiz-adv-x="1024" />

    
    <glyph glyph-name="baobiaoguanli" unicode="&#59010;" d="M917.357714 522.971429h-156.525714c-5.705143 0-11.190857-0.731429-16.603429-1.609143V788.114286C744.228571 847.579429 695.808 896 636.342857 896H107.885714C48.420571 896 0 847.579429 0 788.114286v-808.228572C0-79.579429 48.420571-128 107.885714-128h746.057143c5.12 0 9.728 1.389714 14.262857 2.925714 87.113143 13.677714 154.038857 84.406857 154.404572 170.130286L1024 421.156571c0 56.100571-47.835429 101.814857-106.642286 101.814858zM91.428571-20.114286V788.114286c0 9.069714 7.387429 16.457143 16.457143 16.457143H636.342857c9.069714 0 16.457143-7.387429 16.457143-16.457143V46.518857c-0.146286-29.622857 8.411429-57.782857 23.113143-83.090286H107.885714a16.457143 16.457143 0 0 0-16.457143 16.457143z m839.753143 65.609143c-0.146286-45.348571-42.057143-82.066286-93.476571-82.066286h-0.365714a98.816 98.816 0 0 0-67.291429 25.819429 77.165714 77.165714 0 0 0-25.819429 56.905143l1.389715 374.857143v0.146285c0 4.827429 6.656 10.386286 15.213714 10.386286h47.396571v-265.142857a45.714286 45.714286 0 1 1 91.428572 0V431.542857h17.700571c8.557714 0 15.213714-5.558857 15.213715-10.24l-1.389715-375.808zM526.994286 548.644571a72.557714 72.557714 0 0 1-62.902857 36.498286h-182.125715a72.411429 72.411429 0 0 1-62.902857-36.498286L127.853714 388.827429a72.557714 72.557714 0 0 1 0-71.826286l91.428572-159.963429a72.557714 72.557714 0 0 1 62.683428-36.352h182.272c25.819429 0 49.883429 13.897143 62.829715 36.425143l91.355428 159.890286a72.630857 72.630857 0 0 1 0 71.826286L526.994286 548.644571zM453.12 212.114286h-160.182857l-80.457143 140.8 80.457143 140.8h160.182857l80.457143-140.8-80.457143-140.8zM257.609143 352.914286c0-63.634286 51.785143-115.419429 115.419428-115.419429s115.419429 51.785143 115.419429 115.419429S436.662857 468.333714 373.028571 468.333714s-115.419429-51.785143-115.419428-115.419428z m139.410286 0a23.990857 23.990857 0 1 0-47.981715 0 23.990857 23.990857 0 0 0 47.981715 0z"  horiz-adv-x="1024" />

    
    <glyph glyph-name="bangzhuzhongxin" unicode="&#59011;" d="M512 709.485714a294.765714 294.765714 0 0 1-294.4-294.4c0-78.628571 30.646857-152.576 86.235429-208.164571A292.571429 292.571429 0 0 1 512 120.685714a294.765714 294.765714 0 0 1 294.4 294.473143A294.765714 294.765714 0 0 1 512 709.485714z m0-497.371428a201.654857 201.654857 0 0 0-143.506286 59.465143 201.654857 201.654857 0 0 0-59.465143 143.506285C309.028571 526.994286 400.091429 618.057143 512 618.057143s202.971429-90.989714 202.971429-202.971429S623.908571 212.114286 512 212.114286zM667.428571 87.771429h-310.857142a45.714286 45.714286 0 1 1 0-91.428572h310.857142a45.714286 45.714286 0 1 1 0 91.428572zM574.171429-36.571429h-124.342858a45.714286 45.714286 0 1 1 0-91.428571h124.342858a45.714286 45.714286 0 1 1 0 91.428571zM512 742.4c25.234286 0 45.714286 20.48 45.714286 45.714286v62.171428a45.714286 45.714286 0 1 1-91.428572 0v-62.171428c0-25.234286 20.48-45.714286 45.714286-45.714286zM255.414857 640.585143a45.714286 45.714286 0 0 1 0 64.658286l-43.885714 43.885714a45.714286 45.714286 0 1 1-64.658286-64.585143l43.885714-43.958857a45.568 45.568 0 0 1 64.658286 0zM877.129143 749.202286a45.714286 45.714286 0 0 1-64.658286 0l-43.885714-43.958857a45.714286 45.714286 0 1 1 64.658286-64.658286l43.885714 43.885714a45.714286 45.714286 0 0 1 0 64.731429zM107.885714 460.8h-62.171428a45.714286 45.714286 0 1 1 0-91.428571h62.171428a45.714286 45.714286 0 1 1 0 91.428571zM978.285714 460.8h-62.171428a45.714286 45.714286 0 1 1 0-91.428571h62.171428a45.714286 45.714286 0 1 1 0 91.428571z"  horiz-adv-x="1024" />

    
    <glyph glyph-name="gongdanguanli" unicode="&#59012;" d="M853.942857 771.657143H775.314286V850.285714A45.714286 45.714286 0 0 1 729.6 896h-435.2A45.714286 45.714286 0 0 1 248.685714 850.285714V771.657143H170.057143a45.714286 45.714286 0 0 1-45.714286-45.714286v-808.228571c0-25.234286 20.48-45.714286 45.714286-45.714286h683.885714c25.234286 0 45.714286 20.48 45.714286 45.714286V725.942857a45.714286 45.714286 0 0 1-45.714286 45.714286zM683.885714 804.571429V709.485714h-343.771428v16.237715 0.219428V804.571429h343.771428z m124.342857-841.142858h-592.457142v716.8h32.914285v-16.457142c0-25.234286 20.48-45.714286 45.714286-45.714286h435.2c25.234286 0 45.714286 20.48 45.714286 45.714286V680.228571h32.914285v-716.8zM757.321143 357.961143l-91.428572 159.963428a72.557714 72.557714 0 0 1-62.756571 36.352H420.864a72.630857 72.630857 0 0 1-62.756571-36.425142l-91.428572-159.963429a72.704 72.704 0 0 1 0-71.68l91.355429-159.890286a72.557714 72.557714 0 0 1 62.902857-36.498285h182.125714a72.411429 72.411429 0 0 1 62.902857 36.498285l91.355429 159.890286a72.704 72.704 0 0 1 0 71.753143z m-165.302857-176.713143H431.981714l-80.457143 140.8 80.457143 140.8h160.036572l80.457143-140.8-80.457143-140.8zM396.580571 322.048c0-63.634286 51.785143-115.419429 115.419429-115.419429s115.419429 51.785143 115.419429 115.419429S575.634286 437.394286 512 437.394286s-115.419429-51.785143-115.419429-115.419429z m139.410286 0a23.990857 23.990857 0 1 0-47.981714 0 23.990857 23.990857 0 0 0 47.981714 0z"  horiz-adv-x="1024" />

    
    <glyph glyph-name="xitongguanli" unicode="&#59013;" d="M1010.176 436.150857l-203.776 356.498286A105.252571 105.252571 0 0 1 715.190857 845.531429H308.809143c-37.595429 0-72.630857-20.260571-91.209143-52.955429L13.824 436.150857c-18.358857-32.182857-18.358857-72.118857 0-104.301714l203.702857-356.425143a105.325714 105.325714 0 0 1 91.282286-53.028571h406.381714c37.595429 0 72.630857 20.333714 91.209143 53.028571l203.776 356.425143c18.358857 32.182857 18.358857 72.118857 0 104.301714z m-283.136-415.451428a13.677714 13.677714 0 0 0-11.849143-6.875429H308.809143a13.750857 13.750857 0 0 0-11.849143 6.948571L93.184 377.197714a13.824 13.824 0 0 0 0 13.604572L296.96 747.300571a13.750857 13.750857 0 0 0 11.849143 6.875429h406.381714c4.900571 0 9.508571-2.633143 11.849143-6.875429l203.702857-356.425142a13.750857 13.750857 0 0 0 0-13.677715L727.04 20.699429zM512 585.142857C401.042286 585.142857 310.857143 494.957714 310.857143 384S401.042286 182.857143 512 182.857143 713.142857 273.042286 713.142857 384 622.957714 585.142857 512 585.142857zM512 274.285714c-60.489143 0-109.714286 49.225143-109.714286 109.714286S451.510857 493.714286 512 493.714286s109.714286-49.225143 109.714286-109.714286S572.489143 274.285714 512 274.285714z"  horiz-adv-x="1024" />

    
    <glyph glyph-name="jichuxinxiguanli" unicode="&#59014;" d="M1010.176 439.003429l-203.776 356.498285A105.252571 105.252571 0 0 1 715.190857 848.457143H308.809143c-37.595429 0-72.630857-20.260571-91.209143-52.955429L13.824 439.003429c-18.358857-32.182857-18.358857-72.118857 0-104.301715l203.702857-356.425143a105.325714 105.325714 0 0 1 91.282286-53.028571h406.381714c37.595429 0 72.630857 20.333714 91.209143 53.028571l203.776 356.425143c18.358857 32.182857 18.358857 72.118857 0 104.301715z m-283.136-415.451429a13.677714 13.677714 0 0 0-11.849143-6.875429H308.809143a13.750857 13.750857 0 0 0-11.849143 6.948572L93.184 380.050286a13.824 13.824 0 0 0 0 13.604571L296.96 750.153143a13.750857 13.750857 0 0 0 11.849143 6.875428h406.381714c4.900571 0 9.508571-2.633143 11.849143-6.875428l203.702857-356.425143a13.750857 13.750857 0 0 0 0-13.677714L727.04 23.552zM729.6 588.068571H402.285714v16.384a45.714286 45.714286 0 1 1-91.428571 0v-16.457142h-16.457143a45.714286 45.714286 0 1 1 0-91.428572h16.457143v-16.457143a45.714286 45.714286 0 1 1 91.428571 0v16.457143h327.314286a45.714286 45.714286 0 1 1 0 91.428572zM729.6 277.211429H588.8v16.384a45.714286 45.714286 0 1 1-91.428571 0v-16.457143H294.4a45.714286 45.714286 0 1 1 0-91.428572H497.371429v-16.457143a45.714286 45.714286 0 1 1 91.428571 0v16.457143h140.8a45.714286 45.714286 0 1 1 0 91.428572z"  horiz-adv-x="1024" />

    
    <glyph glyph-name="yundanju" unicode="&#59015;" d="M853.942857 771.657143H775.314286V850.285714A45.714286 45.714286 0 0 1 729.6 896h-435.2A45.714286 45.714286 0 0 1 248.685714 850.285714V771.657143H170.057143a45.714286 45.714286 0 0 1-45.714286-45.714286v-808.228571c0-25.234286 20.48-45.714286 45.714286-45.714286h683.885714c25.234286 0 45.714286 20.48 45.714286 45.714286V725.942857a45.714286 45.714286 0 0 1-45.714286 45.714286zM683.885714 804.571429V709.485714h-343.771428v16.237715 0.219428V804.571429h343.771428z m124.342857-841.142858h-592.457142v716.8h32.914285v-16.457142c0-25.234286 20.48-45.714286 45.714286-45.714286h435.2c25.234286 0 45.714286 20.48 45.714286 45.714286V680.228571h32.914285v-716.8zM677.449143 392.411429C659.602286 467.236571 592.164571 522.971429 512 522.971429s-147.602286-55.734857-165.449143-130.56A139.190857 139.190857 0 0 1 248.685714 259.657143c0-76.653714 62.317714-138.971429 138.971429-138.971429h248.685714c76.653714 0 138.971429 62.317714 138.971429 138.971429 0 62.317714-41.252571 115.2-97.865143 132.754286zM636.342857 212.114286H387.657143a47.542857 47.542857 0 0 0 0 95.085714c25.234286 0 45.714286 20.48 45.714286 45.714286a78.701714 78.701714 0 0 0 157.257142 0c0-25.234286 20.48-45.714286 45.714286-45.714286a47.616 47.616 0 0 0 0-95.085714z"  horiz-adv-x="1024" />

    
    <glyph glyph-name="jiesuandan" unicode="&#59016;" d="M853.942857 771.657143H775.314286V850.285714A45.714286 45.714286 0 0 1 729.6 896h-435.2A45.714286 45.714286 0 0 1 248.685714 850.285714V771.657143H170.057143a45.714286 45.714286 0 0 1-45.714286-45.714286v-808.228571c0-25.234286 20.48-45.714286 45.714286-45.714286h683.885714c25.234286 0 45.714286 20.48 45.714286 45.714286V725.942857a45.714286 45.714286 0 0 1-45.714286 45.714286zM683.885714 804.571429V709.485714h-343.771428v16.237715 0.219428V804.571429h343.771428z m124.342857-841.142858h-592.457142v716.8h32.914285v-16.457142c0-25.234286 20.48-45.714286 45.714286-45.714286h435.2c25.234286 0 45.714286 20.48 45.714286 45.714286V680.228571h32.914285v-716.8zM626.176 506.441143L512 392.265143 397.824 506.441143a45.714286 45.714286 0 1 1-64.658286-64.585143l68.461715-68.534857h-6.948572a45.714286 45.714286 0 1 1 0-91.428572h71.606857v-25.892571h-71.606857a45.714286 45.714286 0 1 1 0-91.428571h71.606857v-71.606858a45.714286 45.714286 0 1 1 91.428572 0V164.571429h71.606857a45.714286 45.714286 0 1 1 0 91.428571h-71.606857v25.892571h71.606857a45.714286 45.714286 0 1 1 0 91.428572h-6.948572l68.461715 68.534857a45.714286 45.714286 0 1 1-64.658286 64.585143z"  horiz-adv-x="1024" />

    
    <glyph glyph-name="yunguiji" unicode="&#59017;" d="M1018.138449 622.733511c-0.950838 1.828535-2.1211 3.218221-3.291363 4.827332a44.616251 44.616251 0 0 1-12.507179 11.922047c-1.02398 0.731414-1.462828 1.828535-2.559948 2.413666L533.50357 890.577297a45.420806 45.420806 0 0 1-43.00714 0l-466.276389-248.680741c-1.097121-0.585131-1.462828-1.755393-2.559948-2.413666a44.616251 44.616251 0 0 1-12.507179-11.922047c-1.170262-1.609111-2.340525-2.998797-3.291363-4.827332a44.543109 44.543109 0 0 1-5.851311-21.137863v-435.191296c0-16.895662 9.288957-32.401638 24.209801-40.300908l466.276389-248.680741a45.347664 45.347664 0 0 1 43.00714 0l466.276389 248.680741a45.713371 45.713371 0 0 1 24.209801 40.227767V601.668789a44.543109 44.543109 0 0 1-5.851311 21.211005zM512 798.41914l369.144617-196.823492-128.290006-68.387204L383.783136 729.958795 512 798.41914zM286.724506 678.247829l369.071475-196.823492L512 404.772156 142.855383 601.595648 286.724506 678.247829z m-195.287523-152.865514L466.286629 325.486885v-331.549941L91.436983 193.832375V525.455457z m466.276388-531.445371V325.486885l374.849646 199.968572V193.832375l-374.849646-199.895431zM829.287369 387.437646L640.801995 286.868228A45.64023 45.64023 0 1 1 683.882277 206.266412l188.485373 100.496276a45.64023 45.64023 0 1 1-43.00714 80.674958z"  horiz-adv-x="1024" />

    
    <glyph glyph-name="yunkaipiao" unicode="&#59018;" d="M978.285714 462.628571c25.234286 0 45.714286 20.48 45.714286 45.714286V632.685714c0 59.465143-46.665143 107.885714-104.009143 107.885715H104.009143C46.665143 740.571429 0 692.150857 0 632.685714v-124.342857c0-25.234286 20.48-45.714286 45.714286-45.714286 39.058286 0 70.875429-35.254857 70.875428-78.628571S84.772571 305.371429 45.714286 305.371429A45.714286 45.714286 0 0 1 0 259.657143v-124.342857c0-59.465143 46.665143-107.885714 104.009143-107.885715h815.981714c57.344 0 104.009143 48.420571 104.009143 107.885715V259.657143a45.714286 45.714286 0 0 1-45.714286 45.714286c-39.058286 0-70.875429 35.254857-70.875428 78.628571s31.817143 78.628571 70.875428 78.628571zM932.571429 220.891429V135.314286c0-9.728-6.582857-16.457143-12.580572-16.457143H104.009143c-5.924571 0-12.580571 6.729143-12.580572 16.457143V220.891429C158.72 241.517714 208.018286 306.834286 208.018286 384S158.72 526.482286 91.428571 547.181714V632.685714c0 9.728 6.582857 16.457143 12.580572 16.457143h815.981714c5.924571 0 12.580571-6.729143 12.580572-16.457143V547.108571c-67.291429-20.699429-116.589714-86.016-116.589715-163.181714s49.298286-142.482286 116.589715-163.181714zM677.449143 454.582857C659.602286 529.334857 592.164571 585.142857 512 585.142857s-147.602286-55.808-165.449143-130.56A139.190857 139.190857 0 0 1 248.685714 321.828571c0-76.653714 62.317714-138.971429 138.971429-138.971428h248.685714c76.653714 0 138.971429 62.317714 138.971429 138.971428 0 62.317714-41.252571 115.2-97.865143 132.754286zM636.342857 274.285714H387.657143a47.542857 47.542857 0 0 0 0 95.085715c25.234286 0 45.714286 20.48 45.714286 45.714285C433.371429 458.459429 468.626286 493.714286 512 493.714286s78.628571-35.254857 78.628571-78.628572c0-25.234286 20.48-45.714286 45.714286-45.714285a47.542857 47.542857 0 0 0 0-95.085715z"  horiz-adv-x="1024" />

    
    <glyph glyph-name="jigouguanli" unicode="&#59019;" d="M978.285714 212.114286H899.657143V352.914286a45.714286 45.714286 0 0 1-45.714286 45.714285h-296.228571V493.714286h109.714285c25.234286 0 45.714286 20.48 45.714286 45.714285V850.285714A45.714286 45.714286 0 0 1 667.428571 896h-310.857142a45.714286 45.714286 0 0 1-45.714286-45.714286v-310.857143c0-25.234286 20.48-45.714286 45.714286-45.714285h109.714285v-95.085715h-296.228571a45.714286 45.714286 0 0 1-45.714286-45.714285V212.114286H45.714286A45.714286 45.714286 0 0 1 0 166.4v-248.685714c0-25.234286 20.48-45.714286 45.714286-45.714286h248.685714c25.234286 0 45.714286 20.48 45.714286 45.714286v248.685714a45.714286 45.714286 0 0 1-45.714286 45.714286H215.771429v95.085714h592.457142v-95.085714H729.6a45.714286 45.714286 0 0 1-45.714286-45.714286v-248.685714c0-25.234286 20.48-45.714286 45.714286-45.714286h248.685714c25.234286 0 45.714286 20.48 45.714286 45.714286v248.685714a45.714286 45.714286 0 0 1-45.714286 45.714286zM402.285714 804.571429h219.428572v-219.428572h-219.428572v219.428572z m-153.6-841.142858H91.428571V120.685714H248.685714v-157.257143z m683.885715 0H775.314286V120.685714h157.257143v-157.257143z"  horiz-adv-x="1024" />

    
    <glyph glyph-name="jiaoseguanli" unicode="&#59020;" d="M834.85211 895.998537H189.14789a45.71422 45.71422 0 0 1-45.714221-45.71422v-699.464144c0-14.628551 7.094847-28.452531 19.017116-37.010233l322.778968-233.179095a45.641078 45.641078 0 0 1 53.540494 0l322.778968 233.179095a45.71422 45.71422 0 0 1 19.017116 37.083376V850.211174A45.71422 45.71422 0 0 1 834.85211 895.998537z m-45.71422-91.428441v-542.280368C728.868262 353.20617 626.322122 413.402655 512 413.402655s-216.868262-60.196485-277.13789-151.112927V804.570096h554.27578zM512-25.892717l-232.593953 168.008903c27.647961 104.008994 122.806682 179.931172 232.593953 179.931171s204.945993-75.922177 232.593953-179.931171L512-25.892717zM512 446.463179c88.21016 0 160.036343 71.75304 160.036343 160.036343S600.21016 766.462722 512 766.462722s-160.036343-71.75304-160.036343-159.9632S423.862983 446.463179 512 446.463179z m0 228.571102a68.607902 68.607902 0 1 0-0.146286-137.288946A68.607902 68.607902 0 0 0 512 675.107424z"  horiz-adv-x="1024" />

    
    <glyph glyph-name="yonghuguanli" unicode="&#59021;" d="M850.870857 311.003429C792.576 419.84 697.782857 459.483429 637.074286 474.185143a229.302857 229.302857 0 0 1 104.594285 192.146286C741.595429 793.014857 638.537143 896 511.926857 896S282.331429 793.014857 282.331429 666.331429c0-80.457143 41.837714-151.113143 104.594285-192.146286-60.708571-14.774857-155.574857-54.345143-213.869714-163.181714-81.92-153.234286-76.068571-308.809143-75.849143-315.392 0.804571-17.261714 11.337143-32.694857 27.209143-39.789715C132.096-47.542857 316.416-128 512-128s379.757714 80.457143 387.510857 83.821714a45.787429 45.787429 0 0 1 27.209143 39.789715c0.292571 6.582857 6.144 162.157714-75.849143 315.392zM512 229.449143l29.769143-87.186286-29.769143-32.182857-29.769143 32.182857 29.769143 87.186286zM512 804.571429c76.214857 0 138.24-62.025143 138.24-138.24s-62.025143-138.24-138.24-138.24-138.24 62.025143-138.24 138.24S435.785143 804.571429 512 804.571429z m0-841.142858c-134.217143 0-266.971429 43.885714-322.925714 65.097143 2.340571 46.811429 13.677714 144.091429 64.658285 239.323429 49.371429 92.306286 136.777143 116.004571 174.592 122.002286l31.232-31.232-72.704-212.626286a45.568 45.568 0 0 1 9.801143-45.860572l81.92-88.283428a45.568 45.568 0 0 1 66.925715 0l81.92 88.283428a45.568 45.568 0 0 1 9.728 45.860572l-72.630858 212.626286 31.232 31.232c38.034286-6.070857 125.220571-29.769143 174.592-122.002286 50.541714-94.573714 62.098286-192.365714 64.512-239.469714-55.881143-21.065143-188.196571-64.950857-322.852571-64.950858z"  horiz-adv-x="1024" />

    
    <glyph glyph-name="bangzhu-mian" unicode="&#59024;" d="M512 896a512 512 0 1 1 0-1024A512 512 0 0 1 512 896z m0-745.545143a54.857143 54.857143 0 1 0 0 109.714286 54.857143 54.857143 0 0 0 0-109.714286z m45.714286 217.161143v-34.304a45.714286 45.714286 0 0 0-91.428572 0v73.142857c0 25.234286 20.48 45.714286 45.714286 45.714286a64.073143 64.073143 0 0 1 0 128 64.073143 64.073143 0 0 1-64-64 45.714286 45.714286 0 0 0-91.428571 0c0 85.723429 69.705143 155.428571 155.428571 155.428571s155.428571-69.705143 155.428571-155.428571c0-69.778286-46.226286-129.024-109.714285-148.553143z"  horiz-adv-x="1024" />

    
    <glyph glyph-name="bangzhu" unicode="&#59025;" d="M512 896C229.668571 896 0 666.331429 0 384s229.668571-512 512-512 512 229.668571 512 512-229.668571 512-512 512z m0-932.571429c-231.862857 0-420.571429 188.708571-420.571429 420.571429S280.137143 804.571429 512 804.571429 932.571429 615.862857 932.571429 384 743.862857-36.571429 512-36.571429zM512 671.597714a155.574857 155.574857 0 0 1-155.428571-155.428571 45.714286 45.714286 0 0 1 91.428571 0 64.073143 64.073143 0 0 0 128 0A64.073143 64.073143 0 0 0 512 452.169143a45.714286 45.714286 0 0 1-45.714286-45.714286v-73.142857a45.714286 45.714286 0 0 1 91.428572 0v34.304a155.721143 155.721143 0 0 1 109.714285 148.553143A155.574857 155.574857 0 0 1 512 671.597714zM512 205.312m-54.857143 0a54.857143 54.857143 0 1 1 109.714286 0 54.857143 54.857143 0 1 1-109.714286 0Z"  horiz-adv-x="1024" />

    
    <glyph glyph-name="bangding-fenpei" unicode="&#59026;" d="M923.428571 610.304H649.289143c-55.442286 0-100.571429-45.056-100.571429-100.498286a45.714286 45.714286 0 0 1 91.428572 0c0 4.900571 4.242286 9.069714 9.142857 9.069715h274.139428c4.900571 0 9.142857-4.169143 9.142858-9.069715v-251.611428a9.289143 9.289143 0 0 0-9.142858-9.069715H649.289143a9.289143 9.289143 0 0 0-9.142857 9.069715 45.714286 45.714286 0 0 1-91.428572 0c0-55.442286 45.129143-100.498286 100.571429-100.498286h274.139428c55.442286 0 100.571429 45.056 100.571429 100.498286V509.805714c0 55.442286-45.129143 100.498286-100.571429 100.498286zM429.568 303.908571a45.714286 45.714286 0 0 1-45.714286-45.714285 9.289143 9.289143 0 0 0-9.142857-9.069715H100.571429a9.289143 9.289143 0 0 0-9.142858 9.069715V509.805714c0 4.900571 4.242286 9.069714 9.142858 9.069715h274.139428c4.900571 0 9.142857-4.169143 9.142857-9.069715a45.714286 45.714286 0 0 1 91.428572 0c0 55.442286-45.129143 100.498286-100.571429 100.498286H100.571429C45.129143 610.304 0 565.248 0 509.805714v-251.611428c0-55.442286 45.129143-100.498286 100.571429-100.498286h274.139428c55.442286 0 100.571429 45.056 100.571429 100.498286a45.714286 45.714286 0 0 1-45.714286 45.714285zM270.921143 384c0-25.234286 20.48-45.714286 45.714286-45.714286h390.948571a45.714286 45.714286 0 0 1 0 91.428572H316.635429A45.714286 45.714286 0 0 1 270.921143 384z"  horiz-adv-x="1024" />

    
    <glyph glyph-name="biaoqian" unicode="&#59027;" d="M804.571429 791.259429H219.428571a45.714286 45.714286 0 0 1-45.714285-45.714286v-731.428572a45.641143 45.641143 0 0 1 66.121143-40.886857L512 109.275429l272.091429-136.045715a45.641143 45.641143 0 0 1 66.194285 40.96v731.428572A45.714286 45.714286 0 0 1 804.571429 791.186286z m-45.714286-703.195429L532.406857 201.289143a45.641143 45.641143 0 0 1-40.813714 0l-226.450286-113.225143V699.830857h493.714286v-611.766857z"  horiz-adv-x="1024" />

    
    <glyph glyph-name="baobiao" unicode="&#59028;" d="M908.653714 713.142857h-173.714285V850.285714A45.714286 45.714286 0 0 1 689.225143 896H115.346286a45.714286 45.714286 0 0 1-45.714286-45.714286v-749.714285c0-25.234286 20.48-45.714286 45.714286-45.714286h173.714285v-137.142857c0-25.234286 20.48-45.714286 45.714286-45.714286h573.878857c25.234286 0 45.714286 20.48 45.714286 45.714286V667.428571a45.714286 45.714286 0 0 1-45.714286 45.714286z m-747.52-566.857143v658.285715h482.377143V713.142857h-308.662857a45.714286 45.714286 0 0 1-45.787429-45.714286v-521.142857h-128z m701.805715-182.857143H380.489143v658.285715h482.450286v-658.285715zM771.657143 173.714286h-292.571429a45.714286 45.714286 0 1 1 0-91.428572h292.571429a45.714286 45.714286 0 1 1 0 91.428572zM554.422857 461.531429a45.714286 45.714286 0 0 1-52.809143-8.630858l-73.142857-73.142857a45.714286 45.714286 0 1 1 64.658286-64.658285l49.810286 49.883428 116.882285-58.514286a45.348571 45.348571 0 0 1 52.662857 8.630858l109.714286 109.714285a45.714286 45.714286 0 1 1-64.585143 64.658286L671.158857 403.017143l-116.809143 58.514286z"  horiz-adv-x="1024" />

    
    <glyph glyph-name="baocun" unicode="&#59029;" d="M905.142857 896H118.857143C53.321143 896 0 842.678857 0 777.142857v-786.285714C0-74.678857 53.321143-128 118.857143-128h786.285714c65.536 0 118.857143 53.321143 118.857143 118.857143V777.142857C1024 842.678857 970.678857 896 905.142857 896zM334.848 804.571429h354.304v-93.549715a23.405714 23.405714 0 0 0-23.113143-23.113143H357.961143a23.405714 23.405714 0 0 0-23.113143 23.113143V804.571429z m434.541714-841.142858H254.610286V294.4a23.405714 23.405714 0 0 0 23.113143 23.186286h468.553142a23.405714 23.405714 0 0 0 23.113143-23.186286v-330.971429z m163.181715 27.428572a27.794286 27.794286 0 0 0-27.428572-27.428572h-44.324571V294.4c0 63.195429-51.419429 114.614857-114.541715 114.614857H277.723429c-63.122286 0-114.541714-51.419429-114.541715-114.614857v-330.971429h-44.324571a27.794286 27.794286 0 0 0-27.428572 27.428572V777.142857a27.794286 27.794286 0 0 0 27.428572 27.428572h124.562286v-93.549715c0-63.122286 51.346286-114.541714 114.541714-114.541714h308.077714c63.195429 0 114.541714 51.419429 114.541714 114.541714V804.571429h124.562286a27.794286 27.794286 0 0 0 27.428572-27.428572v-786.285714zM699.465143 270.409143H324.534857a45.714286 45.714286 0 1 1 0-91.428572h374.930286a45.714286 45.714286 0 1 1 0 91.428572zM699.465143 99.474286H324.534857a45.714286 45.714286 0 1 1 0-91.428572h374.930286a45.714286 45.714286 0 1 1 0 91.428572z"  horiz-adv-x="1024" />

    
    <glyph glyph-name="bianji-luru" unicode="&#59030;" d="M210.628259-3.451415a45.197314 45.197314 0 0 1 6.21646 0.365674l156.947307 21.209096a62.749669 62.749669 0 0 1 35.10471 17.698625l416.356486 417.599778c22.598657 22.671792 23.183736 58.142176 4.09555 83.666225l15.065771 15.065772a67.503432 67.503432 0 0 1 37.810698-12.871727c18.429973 0 35.836058 7.167212 48.707785 20.185208l71.160172 71.379577a69.112398 69.112398 0 0 1 0 97.2693L895.755181 834.819804a70.501959 70.501959 0 0 1-97.41557 0.073135l-4.607493-4.607493-51.998852 52.218256a45.636123 45.636123 0 0 1-64.724308 0L383.226417 588.062947h-57.703367a45.709258 45.709258 0 0 1 0-91.418515h76.718418a45.636123 45.636123 0 0 1 32.325587 13.383671L709.407679 785.453806l19.819535-19.892669-1.901506-1.97464a68.307915 68.307915 0 0 1-20.185208-48.78092c0-13.968749 5.265706-26.694206 13.017997-38.030102l-15.212041-15.138906c-25.158375 18.210568-61.798916 17.552355-83.373686-4.168685l-416.86843-417.965452a63.188478 63.188478 0 0 1-17.62549-35.616654l-21.57477-155.338341a45.636123 45.636123 0 0 1 45.270449-51.998852z m636.419137 757.676656l74.524374-74.743778-39.346529-39.419664-7.240346 7.313481-11.70157 11.70157-55.582458 55.728727 39.346529 39.346529zM276.157051 181.72593l390.539898 391.563785 74.451239-74.743778-390.027954-391.271246-86.884157-11.70157 11.920974 86.152809zM396.317548 163.661632L664.941714 432.94401a45.709258 45.709258 0 1 1-64.724309 64.57804L331.593239 228.239671a45.709258 45.709258 0 1 1 64.724309-64.578039zM978.178115 211.345529H671.962656a45.709258 45.709258 0 0 1 0-91.418515h260.506201v-156.508499H91.418515v156.654768a45.709258 45.709258 0 0 1-4.241819 91.272246H45.709258A45.709258 45.709258 0 0 1 0 165.636271v-247.927013c0-25.23151 20.477747-45.709258 45.709258-45.709258h932.468857c25.23151 0 45.709258 20.477747 45.709257 45.709258v247.927013a45.709258 45.709258 0 0 1-45.709257 45.709258z"  horiz-adv-x="1024" />

    
    <glyph glyph-name="chaxun" unicode="&#59031;" d="M1010.386334-49.650586l-257.818292 257.818292a420.800984 420.800984 0 0 1 93.592574 264.764615C846.160616 706.182562 656.489416 896 423.166056 896S0.098377 706.255682 0.098377 472.932321s189.817438-422.99456 423.067679-422.994559c100.173301 0 192.230371 35.097215 264.764615 93.592573l257.818292-257.818292a45.626379 45.626379 0 0 1 64.637371 0 45.845737 45.845737 0 0 1 0 64.637371zM91.497374 472.932321c0 182.871114 148.797568 331.668681 331.668682 331.668682s331.595562-148.797568 331.595562-331.668682-148.724448-331.595562-331.595562-331.595562S91.497374 290.061207 91.497374 472.932321z"  horiz-adv-x="1024" />

    
    <glyph glyph-name="caiji" unicode="&#59032;" d="M701.44 559.762286H89.453714C40.155429 559.762286 0 518.363429 0 467.382857v-93.257143c0-25.234286 20.48-45.714286 45.714286-45.714285 22.966857 0 41.691429-21.284571 41.691428-47.542858s-18.724571-47.542857-41.691428-47.542857A45.714286 45.714286 0 0 1 0 187.757714v-93.330285c0-50.907429 40.155429-92.306286 89.453714-92.306286H701.44c49.298286 0 89.380571 41.398857 89.380571 92.306286V187.684571a45.714286 45.714286 0 0 1-45.714285 45.714286c-22.966857 0-41.691429 21.284571-41.691429 47.542857s18.724571 47.542857 41.691429 47.542857c25.234286 0 45.714286 20.48 45.714285 45.641143V467.382857c0 50.980571-40.082286 92.379429-89.380571 92.379429z m-1.243429-409.673143l1.243429-56.612572-610.011429 0.877715v56.027428c50.907429 19.529143 87.405714 70.656 87.405715 130.56 0 60.123429-36.864 111.469714-88.210286 130.779429l-1.170286 56.612571H701.44l-2.048-56.905143c-50.907429-19.529143-87.405714-70.656-87.405714-130.486857 0-60.196571 36.864-111.542857 88.210285-130.852571zM558.665143 419.84H232.228571a45.714286 45.714286 0 0 1 0-91.428571h326.436572a45.714286 45.714286 0 0 1 0 91.428571zM558.665143 233.325714H232.228571a45.714286 45.714286 0 0 1 0-91.428571h326.436572a45.714286 45.714286 0 0 1 0 91.428571zM978.285714 542.939429c25.234286 0 45.714286 20.48 45.714286 45.714285V683.958857c0 51.492571-40.594286 93.403429-90.404571 93.403429H307.931429c-49.883429 0-90.404571-41.910857-90.404572-93.403429v-56.32a45.714286 45.714286 0 0 1 91.428572 0l-1.024 58.294857 624.566857-1.974857v-57.929143c-52.077714-19.602286-89.380571-71.68-89.380572-132.754285 0-61.147429 37.522286-113.371429 89.746286-132.827429l0.658286-59.757714h-78.409143a45.714286 45.714286 0 0 1 0-91.428572h78.409143c49.810286 0 90.404571 41.910857 90.404571 93.403429V397.897143a45.714286 45.714286 0 0 1-45.714286 45.714286c-24.137143 0-43.666286 22.235429-43.666285 49.590857s19.602286 49.737143 43.666285 49.737143z"  horiz-adv-x="1024" />

    
    <glyph glyph-name="chaobaoshuiguanli" unicode="&#59033;" d="M978.285714 462.628571c25.234286 0 45.714286 20.48 45.714286 45.714286V632.685714c0 59.465143-46.665143 107.885714-104.009143 107.885715H104.009143C46.665143 740.571429 0 692.150857 0 632.685714v-124.342857c0-25.234286 20.48-45.714286 45.714286-45.714286 39.058286 0 70.875429-35.254857 70.875428-78.628571S84.772571 305.371429 45.714286 305.371429A45.714286 45.714286 0 0 1 0 259.657143v-124.342857c0-59.465143 46.665143-107.885714 104.009143-107.885715h815.981714c57.344 0 104.009143 48.420571 104.009143 107.885715V259.657143a45.714286 45.714286 0 0 1-45.714286 45.714286c-39.058286 0-70.875429 35.254857-70.875428 78.628571s31.817143 78.628571 70.875428 78.628571zM932.571429 220.891429V135.314286c0-9.728-6.582857-16.457143-12.580572-16.457143H104.009143c-5.924571 0-12.580571 6.729143-12.580572 16.457143V220.891429C158.72 241.590857 208.018286 306.834286 208.018286 384S158.72 526.482286 91.428571 547.181714V632.685714c0 9.728 6.582857 16.457143 12.580572 16.457143h815.981714c5.924571 0 12.580571-6.729143 12.580572-16.457143V547.108571c-67.291429-20.699429-116.589714-86.016-116.589715-163.181714s49.298286-142.409143 116.589715-163.181714zM544.256 571.757714a45.641143 45.641143 0 0 1-64.512 0l-124.342857-124.342857a45.714286 45.714286 0 1 1 64.512-64.658286l46.372571 46.372572v-200.557714a45.714286 45.714286 0 0 1 91.428572 0V429.129143l46.372571-46.372572a45.641143 45.641143 0 1 1 64.585143 64.658286l-124.342857 124.342857z"  horiz-adv-x="1024" />

    
    <glyph glyph-name="chenggong-mian" unicode="&#59034;" d="M512 896a512 512 0 1 1 0-1024A512 512 0 0 1 512 896z m284.672-360.740571L431.689143 168.228571a45.568 45.568 0 0 0-64.438857-0.365714l-140.873143 138.971429a45.714286 45.714286 0 1 0 64.146286 65.024l108.470857-106.934857 332.8 334.774857a45.787429 45.787429 0 0 0 64.877714-64.438857z"  horiz-adv-x="1024" />

    
    <glyph glyph-name="chayan" unicode="&#59035;" d="M306.263838 804.577959h227.458039a45.711021 45.711021 0 0 1 0 91.422041h-227.458039a45.711021 45.711021 0 0 1 0-91.422041zM923.106635 168.499964c0 101.66131 0 240.769088-88.277123 329.046211-63.776016 63.776016-134.280694 82.426112-203.030069 88.496536a107.366045 107.366045 0 0 1-52.293408 53.609885v26.548961c0 59.680309-48.563388 108.243697-108.243697 108.243697H368.723377a108.243697 108.243697 0 0 1-108.170559-108.243697v-357.789301c0-8.630241 2.48668-17.041068 7.021212-24.354832l62.459539-99.46718a45.711021 45.711021 0 0 1 38.689808-21.356189h102.538961c15.724591 0 30.352118 8.04514 38.762946 21.429326l62.459539 99.467181a45.784158 45.784158 0 0 1 7.021212 24.281694V446.934933c20.917363 10.019856 37.958432 26.548961 48.709664 47.100636 56.24284-5.412185 100.491108-19.747161 141.960146-61.216199 61.508749-61.435612 61.508749-178.748375 61.508749-266.440397 0-46.076709-12.579673-102.246411-66.335833-127.990858a118.263553 118.263553 0 0 1-93.469895 46.369259H219.742018c-65.604457 0-118.848654-53.390472-118.848653-118.848653v-48.1977c0-25.232483 20.478537-45.711021 45.71102-45.711021h598.412114c25.159346 0 45.711021 20.478537 45.71102 45.711021v31.888008c83.596315 32.692522 132.379116 111.388615 132.379116 218.827798zM533.795015 558.908649c8.557103 0 15.578316-7.021213 15.578315-15.578315 0-17.114206-31.156632-17.114206-31.156631 0 0 8.557103 7.021213 15.578316 15.578316 15.578315z m-87.76516-304.252553h-52.000857l-42.054139 66.920934V666.201557c0 9.069066 7.679451 16.821656 16.748518 16.821656h102.538961c9.069066 0 16.821656-7.752589 16.821656-16.821656v-26.548961c-36.129991-17.187344-61.289336-53.75616-61.289336-96.322262s25.159346-79.134919 61.289336-96.322263v-125.431041l-42.054139-66.920934z m-253.787587-291.160917v2.486679a27.792301 27.792301 0 0 0 27.49975 27.426613h452.136848a27.792301 27.792301 0 0 0 27.426612-27.426613l-506.990072-2.486679z"  horiz-adv-x="1024" />

    
    <glyph glyph-name="chakan" unicode="&#59036;" d="M429.494857-36.571429H163.474286V804.571429H517.12l178.322286-178.322286v-212.406857a45.714286 45.714286 0 1 1 91.428571 0V645.12a45.714286 45.714286 0 0 1-13.385143 32.329143L568.393143 882.614857A45.714286 45.714286 0 0 1 536.137143 896H117.76a45.714286 45.714286 0 0 1-45.714286-45.714286v-932.571428c0-25.234286 20.48-45.714286 45.714286-45.714286h311.734857a45.714286 45.714286 0 1 1 0 91.428571zM741.668571 86.454857m-45.714285 0a45.714286 45.714286 0 1 1 91.428571 0 45.714286 45.714286 0 1 1-91.428571 0ZM929.865143 151.259429c-47.396571 60.489143-116.150857 95.158857-188.635429 95.158857-72.484571 0-141.238857-34.669714-188.708571-95.158857a106.349714 106.349714 0 0 1 0-129.609143c47.469714-60.489143 116.224-95.085714 188.708571-95.085715 72.484571 0 141.238857 34.596571 188.708572 95.085715a106.349714 106.349714 0 0 1 0 129.609143z m-71.972572-73.216a147.529143 147.529143 0 0 0-233.325714 0 14.994286 14.994286 0 0 0 0 16.822857c29.915429 38.180571 72.411429 60.123429 116.662857 60.123428s86.747429-21.942857 116.662857-60.123428c3.437714-4.388571 3.510857-12.434286 0-16.822857zM475.428571 612.571429h-219.428571a45.714286 45.714286 0 1 1 0-91.428572h219.428571a45.714286 45.714286 0 1 1 0 91.428572zM475.428571 393.142857h-219.428571a45.714286 45.714286 0 1 1 0-91.428571h219.428571a45.714286 45.714286 0 1 1 0 91.428571z"  horiz-adv-x="1024" />

    
    <glyph glyph-name="chaifen" unicode="&#59037;" d="M608.036571 525.750857h-51.565714a186.514286 186.514286 0 0 1-186.221714-186.221714v-51.565714c0-25.307429 20.48-45.714286 45.714286-45.714286h51.565714a186.514286 186.514286 0 0 1 186.221714 186.294857v51.492571a45.714286 45.714286 0 0 1-45.714286 45.714286z m-45.714285-97.28c0-52.224-42.496-94.793143-94.793143-94.793143h-5.851429v5.851429c0 52.297143 42.496 94.793143 94.793143 94.793143h5.851429v-5.851429zM264.045714 333.677714H186.294857A95.012571 95.012571 0 0 0 91.428571 428.544V709.705143c0 52.297143 42.569143 94.866286 94.866286 94.866286h281.234286c52.297143 0 94.793143-42.569143 94.793143-94.866286v-77.677714a45.714286 45.714286 0 1 1 91.428571 0V709.705143A186.514286 186.514286 0 0 1 467.529143 896H186.294857A186.514286 186.514286 0 0 1 0 709.705143V428.617143a186.514286 186.514286 0 0 1 186.294857-186.294857H264.045714a45.714286 45.714286 0 1 1 0 91.428571zM837.705143 525.750857H759.954286a45.714286 45.714286 0 1 1 0-91.428571h77.677714c52.297143 0 94.866286-42.496 94.866286-94.793143v-281.234286c0-52.297143-42.569143-94.866286-94.866286-94.866286H556.470857a94.939429 94.939429 0 0 0-94.793143 94.866286v76.8a45.714286 45.714286 0 1 1-91.428571 0v-76.8A186.514286 186.514286 0 0 1 556.470857-128h281.234286A186.514286 186.514286 0 0 1 1024 58.294857V339.529143a186.514286 186.514286 0 0 1-186.294857 186.221714z"  horiz-adv-x="1024" />

    
    <glyph glyph-name="chenggong" unicode="&#59038;" d="M512 896C229.668571 896 0 666.331429 0 384s229.668571-512 512-512 512 229.668571 512 512-229.668571 512-512 512z m0-932.571429c-231.862857 0-420.571429 188.708571-420.571429 420.571429S280.137143 804.571429 512 804.571429 932.571429 615.862857 932.571429 384 743.862857-36.571429 512-36.571429zM796.452571 599.917714a45.714286 45.714286 0 0 1-64.658285-0.219428l-332.8-334.774857-108.397715 106.934857a45.714286 45.714286 0 1 1-64.219428-65.097143L367.177143 167.862857a45.641143 45.641143 0 0 1 64.512 0.365714l364.909714 367.030858a45.714286 45.714286 0 0 1-0.219428 64.658285z"  horiz-adv-x="1024" />

    
    <glyph glyph-name="dayin" unicode="&#59039;" d="M916.114286 656.896H837.485714V850.285714A45.714286 45.714286 0 0 1 791.771429 896h-559.542858a45.714286 45.714286 0 0 1-45.714285-45.714286v-193.389714H107.885714C48.420571 656.896 0 608.548571 0 549.083429v-373.028572c0-59.538286 48.420571-107.885714 107.885714-107.885714H186.514286v-150.454857c0-25.234286 20.48-45.714286 45.714285-45.714286h559.542858c25.234286 0 45.714286 20.48 45.714285 45.714286v150.454857h78.628572c59.465143 0 107.885714 48.347429 107.885714 107.885714v373.028572c0 59.465143-48.420571 107.812571-107.885714 107.812571zM277.942857 804.571429h468.114286v-147.675429H277.942857V804.571429z m468.114286-841.142858H277.942857V316.854857h468.114286v-353.426286z m186.514286 212.626286a16.676571 16.676571 0 0 0-16.457143-16.457143H837.485714V362.569143a45.714286 45.714286 0 0 1-45.714285 45.714286h-559.542858a45.714286 45.714286 0 0 1-45.714285-45.714286v-202.971429H107.885714a16.676571 16.676571 0 0 0-16.457143 16.457143v373.028572c0 8.850286 7.533714 16.384 16.457143 16.384h808.228572c8.923429 0 16.457143-7.533714 16.457143-16.384v-373.028572zM365.641143 165.156571h283.648a45.714286 45.714286 0 1 1 0 91.428572H365.641143a45.714286 45.714286 0 1 1 0-91.428572zM365.641143 8.923429h283.648a45.714286 45.714286 0 1 1 0 91.428571H365.641143a45.714286 45.714286 0 1 1 0-91.428571z"  horiz-adv-x="1024" />

    
    <glyph glyph-name="daochu" unicode="&#59040;" d="M978.285714 356.571429A45.714286 45.714286 0 0 1 932.571429 310.857143v-347.428572H91.428571V804.571429H438.857143A45.714286 45.714286 0 0 1 438.857143 896H45.714286A45.714286 45.714286 0 0 1 0 850.285714v-932.571428c0-25.234286 20.48-45.714286 45.714286-45.714286h932.571428c25.234286 0 45.714286 20.48 45.714286 45.714286V310.857143a45.714286 45.714286 0 0 1-45.714286 45.714286zM356.571429 359.131429a45.714286 45.714286 0 0 1 91.428571 0A320.365714 320.365714 0 0 0 768 678.985143h98.157714l-44.544-44.617143a45.714286 45.714286 0 1 1 64.731429-64.512l122.441143 122.587429a45.787429 45.787429 0 0 1 0 64.585142L886.345143 879.689143a45.787429 45.787429 0 0 1-64.731429-64.658286l44.544-44.544H768A411.867429 411.867429 0 0 1 356.571429 359.131429z"  horiz-adv-x="1024" />

    
    <glyph glyph-name="chushihua" unicode="&#59041;" d="M512 384m-155.428571 0a155.428571 155.428571 0 1 1 310.857142 0 155.428571 155.428571 0 1 1-310.857142 0ZM512 896c-1.755429 0-3.291429-0.804571-5.046857-1.024a44.178286 44.178286 0 0 1-34.450286-23.04 44.105143 44.105143 0 0 1-3.657143-8.777143c-0.438857-1.609143-1.462857-2.852571-1.755428-4.461714-0.292571-1.462857 0.146286-2.779429 0-4.242286-0.073143-1.462857-0.804571-2.706286-0.804572-4.169143 0-1.682286 0.731429-3.145143 0.950857-4.827428a44.032 44.032 0 0 1 31.890286-38.253715c1.536-0.512 2.852571-1.536 4.461714-1.828571 1.243429-0.219429 119.954286-23.917714 144.091429-158.134857a45.714286 45.714286 0 0 1 89.965714 16.237714 295.570286 295.570286 0 0 1-34.816 94.793143A420.717714 420.717714 0 0 0 932.571429 384c0-231.862857-188.708571-420.571429-420.571429-420.571429S91.428571 152.137143 91.428571 384c0 139.922286 69.339429 270.336 185.417143 348.745143a45.714286 45.714286 0 0 1-51.2 75.776A511.707429 511.707429 0 0 1 0 384c0-282.331429 229.668571-512 512-512s512 229.668571 512 512-229.668571 512-512 512z"  horiz-adv-x="1024" />

    
    <glyph glyph-name="daikai" unicode="&#59042;" d="M795.279138 560.537863V700.642638c40.416244 19.002213 68.700307 59.783884 68.700307 107.289415V850.248519a45.678396 45.678396 0 0 1-45.751481 45.678396H211.034187a45.678396 45.678396 0 0 1-45.678395-45.678396v-42.389551c0-45.60531 26.23767-84.925273 64.16901-104.804511v-142.516594c0-104.804511 59.710799-149.532796 120.956391-176.135893-61.245593-26.749268-120.956391-71.550639-120.956391-176.282064v-142.516594a118.398401 118.398401 0 0 1-64.16901-104.877596v-42.316466c0-25.214474 20.463921-45.678396 45.678395-45.678396h607.193777c25.214474 0 45.678396 20.463921 45.678395 45.678396v42.389551c0 47.505531-28.210977 88.287203-68.627221 107.21633V208.119906c0 104.804511-59.710799 149.532796-121.029477 176.208978 61.318678 26.676183 121.029477 71.404468 121.029477 176.208979z m-91.356791 45.678396H320.881593V689.168225h383.040754v-82.951966z m68.407965 198.353864a27.84555 27.84555 0 0 0-27.187781-24.118192H284.11962a27.84555 27.84555 0 0 0-27.187781 24.118192h515.398473z m-515.398473-840.482478a27.84555 27.84555 0 0 0 27.187781 24.118193h461.022911c13.740061 0 25.579902-10.743559 27.187781-24.118193H256.931839z m191.922347 115.474984c15.347941 37.712083 45.970737 65.046035 63.584327 77.470559 17.540504-12.424524 48.236386-39.758475 63.584326-77.470559h-127.168653z m255.068161 128.557277v-128.630362h-32.449932c-23.606595 105.608451-123.075869 174.308757-159.033902 174.308757s-135.500393-68.700307-159.106988-174.308757h-32.449932v128.630362c0 61.537934 27.04161 80.613232 113.867104 110.359003 8.770252 3.069588 15.421026 7.893227 23.387339 11.69367 6.943116-8.331739 9.647277-14.836343 9.720363-14.836343a45.239883 45.239883 0 0 1 43.120405-34.788666h1.607879a46.993933 46.993933 0 0 1 44.070516 33.326957 66.434658 66.434658 0 0 0 9.062594 14.763258c7.747056-3.654272 15.713368-7.162372 24.191278-10.08579 86.971665-29.818857 114.013275-48.96724 114.013276-110.432089zM589.909071 450.178859a228.026551 228.026551 0 0 1-51.890657-25.726072 44.582114 44.582114 0 0 1-9.208764-6.72386c-5.481407-4.092784-11.83984-7.966312-16.371137-12.059096-4.896724 4.385126-11.693669 8.624081-17.686675 12.936121-2.338734 2.046392-4.677468 4.019699-7.308543 5.481408a226.491756 226.491756 0 0 1-52.621512 26.091499c-60.441653 20.683178-91.429877 36.542716-105.023767 64.680609h365.207908c-13.593891-28.210977-44.655199-43.997431-105.096853-64.680609z"  horiz-adv-x="1024" />

    
    <glyph glyph-name="daoru" unicode="&#59043;" d="M978.285714 896H585.142857a45.714286 45.714286 0 0 1 0-91.428571h347.428572v-841.142858H91.428571V310.857143A45.714286 45.714286 0 0 1 0 310.857143v-393.142857c0-25.234286 20.48-45.714286 45.714286-45.714286h932.571428c25.234286 0 45.714286 20.48 45.714286 45.714286V850.285714A45.714286 45.714286 0 0 1 978.285714 896zM418.742857 435.931429h98.157714l-44.470857-44.544a45.714286 45.714286 0 0 1 64.731429-64.658286l122.441143 122.587428a45.787429 45.787429 0 0 1 0 64.585143L537.161143 636.562286a45.714286 45.714286 0 1 1-64.731429-64.585143l44.544-44.617143H418.742857A320.365714 320.365714 0 0 0 98.742857 847.36a45.714286 45.714286 0 0 1-91.428571 0A411.867429 411.867429 0 0 1 418.742857 435.931429z"  horiz-adv-x="1024" />

    
    <glyph glyph-name="fapiaoliuzhuan" unicode="&#59044;" d="M978.285714 462.628571c25.234286 0 45.714286 20.48 45.714286 45.714286V632.685714c0 59.465143-46.665143 107.885714-104.009143 107.885715H104.009143C46.665143 740.571429 0 692.150857 0 632.685714v-124.342857c0-25.234286 20.48-45.714286 45.714286-45.714286 39.058286 0 70.875429-35.254857 70.875428-78.628571S84.772571 305.371429 45.714286 305.371429A45.714286 45.714286 0 0 1 0 259.657143v-124.342857c0-59.465143 46.665143-107.885714 104.009143-107.885715h815.981714c57.344 0 104.009143 48.420571 104.009143 107.885715V259.657143a45.714286 45.714286 0 0 1-45.714286 45.714286c-39.058286 0-70.875429 35.254857-70.875428 78.628571s31.817143 78.628571 70.875428 78.628571zM932.571429 220.891429V135.314286c0-9.728-6.582857-16.457143-12.580572-16.457143H104.009143c-5.924571 0-12.580571 6.729143-12.580572 16.457143V220.891429C158.72 241.590857 208.018286 306.834286 208.018286 384S158.72 526.482286 91.428571 547.181714V632.685714c0 9.728 6.582857 16.457143 12.580572 16.457143h815.981714c5.924571 0 12.580571-6.729143 12.580572-16.457143V547.108571c-67.291429-20.699429-116.589714-86.016-116.589715-163.181714s49.298286-142.409143 116.589715-163.181714zM744.594286 520.996571c-0.512 2.925714-0.585143 5.924571-1.682286 8.704a45.714286 45.714286 0 0 1-9.874286 14.921143l-51.2 51.126857a45.714286 45.714286 0 0 1-64.658285 0 44.836571 44.836571 0 0 1-12.141715-38.546285c-47.835429-1.901714-85.138286-21.430857-119.222857-64.146286a44.470857 44.470857 0 0 1-8.923428-22.381714c-34.377143 44.178286-78.116571 72.704-169.691429 72.704a45.714286 45.714286 0 1 1 0-91.428572c76.434286 0 88.356571-17.115429 130.048-86.747428a45.129143 45.129143 0 0 1-45.202286-9.362286c-14.628571-13.604571-34.669714-22.674286-84.845714-22.674286a45.714286 45.714286 0 1 1 0-91.428571c67.584 0 111.616 14.116571 147.163429 47.177143a44.982857 44.982857 0 0 1 13.604571 27.721143c35.401143-51.931429 73.289143-86.308571 137.069714-88.868572a44.836571 44.836571 0 0 1 44.470857-51.858286c11.702857 0 23.405714 4.461714 32.329143 13.385143l51.2 51.2a45.714286 45.714286 0 0 1 9.874286 14.921143c1.097143 2.706286 1.170286 5.705143 1.755429 8.557714 0.585143 2.925714 1.755429 5.778286 1.755428 8.850286l-0.073143 0.438857 0.073143 0.365715c0 2.779429-1.243429 5.339429-1.755428 8.045714-0.658286 3.145143-0.804571 6.436571-2.121143 9.362286-0.731429 1.828571-2.267429 3.218286-3.291429 4.900571-2.048 3.437714-4.022857 6.948571-6.875428 9.728l-0.512 0.585143-51.2 47.762286a45.714286 45.714286 0 0 1-76.8-34.962286c-26.258286 2.413714-43.52 18.505143-85.577143 88.722286L510.537143 420.571429c3.584-0.877714 7.168-1.755429 10.825143-1.755429 13.458286 0 26.697143 5.851429 35.766857 17.115429 17.846857 22.308571 30.573714 28.525714 46.811428 29.988571a45.568 45.568 0 0 1 45.568-47.104 45.568 45.568 0 0 1 31.232 12.288l51.2 47.689143c0.146286 0.219429 0.219429 0.512 0.438858 0.731428 2.852571 2.706286 4.827429 6.217143 6.875428 9.654858 1.024 1.682286 2.486857 3.072 3.291429 4.900571 1.316571 2.925714 1.462857 6.217143 2.121143 9.362286 0.512 2.706286 1.682286 5.266286 1.755428 8.045714l-0.073143 0.365714 0.073143 0.365715c0 3.145143-1.170286 5.851429-1.755428 8.777142z"  horiz-adv-x="1024" />

    
    <glyph glyph-name="fangda" unicode="&#59045;" d="M978.285714 896H45.714286A45.714286 45.714286 0 0 1 0 850.285714v-932.571428c0-25.234286 20.48-45.714286 45.714286-45.714286h932.571428c25.234286 0 45.714286 20.48 45.714286 45.714286V850.285714A45.714286 45.714286 0 0 1 978.285714 896z m-45.714285-932.571429H91.428571V804.571429h841.142858v-841.142858zM568.32 394.678857c11.702857 0 23.405714 4.388571 32.402286 13.385143l155.794285 155.794286v-76.141715a45.714286 45.714286 0 0 1 91.428572 0v186.514286c0 0.731429-0.438857 1.389714-0.438857 2.194286a45.494857 45.494857 0 0 1-3.145143 15.286857 45.348571 45.348571 0 0 1-7.68 11.629714c-0.804571 1.024-1.170286 2.194286-2.121143 3.218286-0.731429 0.731429-1.682286 0.950857-2.486857 1.609143a45.494857 45.494857 0 0 1-12.361143 8.192 45.787429 45.787429 0 0 1-17.554286 3.584H615.789714a45.714286 45.714286 0 0 1 0-91.428572h76.068572l-155.794286-155.794285a45.860571 45.860571 0 0 1 32.402286-78.043429zM179.638857 76.288c1.755429-4.388571 4.681143-8.045714 7.68-11.702857 0.877714-0.950857 1.170286-2.194286 2.121143-3.145143 0.731429-0.731429 1.682286-0.950857 2.486857-1.609143 3.657143-3.291429 7.68-6.290286 12.361143-8.192a45.787429 45.787429 0 0 1 17.554286-3.584h186.441143a45.714286 45.714286 0 0 1 0 91.428572h-76.068572l156.233143 156.233142a45.787429 45.787429 0 0 1-64.731429 64.658286L267.483429 204.214857v76.068572a45.714286 45.714286 0 0 1-91.428572 0v-186.514286c0-0.731429 0.438857-1.389714 0.438857-2.194286a45.641143 45.641143 0 0 1 3.145143-15.286857z"  horiz-adv-x="1024" />

    
    <glyph glyph-name="feifangweishuikongfapiao" unicode="&#59046;" d="M978.285714 462.628571c25.234286 0 45.714286 20.48 45.714286 45.714286V632.685714c0 59.465143-46.665143 107.885714-104.009143 107.885715H104.009143C46.665143 740.571429 0 692.150857 0 632.685714v-124.342857c0-25.234286 20.48-45.714286 45.714286-45.714286 39.058286 0 70.875429-35.254857 70.875428-78.628571S84.772571 305.371429 45.714286 305.371429A45.714286 45.714286 0 0 1 0 259.657143v-124.342857c0-59.465143 46.665143-107.885714 104.009143-107.885715h815.981714c57.344 0 104.009143 48.420571 104.009143 107.885715V259.657143a45.714286 45.714286 0 0 1-45.714286 45.714286c-39.058286 0-70.875429 35.254857-70.875428 78.628571s31.817143 78.628571 70.875428 78.628571zM932.571429 220.891429V135.314286c0-9.728-6.582857-16.457143-12.580572-16.457143H104.009143c-5.924571 0-12.580571 6.729143-12.580572 16.457143V220.891429C158.72 241.590857 208.018286 306.834286 208.018286 384S158.72 526.482286 91.428571 547.181714v85.577143c0 9.654857 6.582857 16.384 12.580572 16.384h815.981714c5.924571 0 12.580571-6.729143 12.580572-16.457143v-85.504c-67.291429-20.699429-116.589714-86.016-116.589715-163.181714s49.298286-142.409143 116.589715-163.181714zM680.96 566.272l-155.282286 48.713143a45.787429 45.787429 0 0 1-27.355428 0l-155.282286-48.713143a45.714286 45.714286 0 0 1-32.036571-43.593143L310.857143 354.157714c0-88.356571 97.792-155.501714 179.858286-196.315428a45.787429 45.787429 0 0 1 39.131428-0.804572c59.099429 26.624 182.125714 81.92 182.125714 197.12 0 19.163429 1.024 168.228571 1.024 168.228572a45.641143 45.641143 0 0 1-32.036571 43.885714zM512 523.483429l109.348571-34.377143-0.731428-134.948572c0-7.899429-2.121143-15.36-4.973714-22.528L444.928 502.491429 512 523.483429z m0.292571-273.846858C444.854857 286.208 402.285714 326.217143 402.285714 354.230857v61.44l147.017143-147.017143a553.691429 553.691429 0 0 0-37.010286-19.017143z"  horiz-adv-x="1024" />

    
    <glyph glyph-name="fasong" unicode="&#59047;" d="M1020.966553 833.651584V833.870864c2.923724 7.30931 3.143003 15.203365 2.1197 22.951234a44.440606 44.440606 0 0 1-12.206548 26.094237 44.440606 44.440606 0 0 1-26.094237 12.206548 45.025351 45.025351 0 0 1-23.024327-2.1197h-0.219279l-0.292373-0.146186L29.677909 520.301458A45.683189 45.683189 0 0 1 26.242533 436.975322l201.663868-100.86848a44.806071 44.806071 0 0 1-27.190634-12.352735l-124.258273-124.258272a45.683189 45.683189 0 1 1 64.614302-64.614302l124.258273 124.258273a45.025351 45.025351 0 0 1 6.286006 55.185291l113.732866-56.939526 56.866434-113.659773a45.025351 45.025351 0 0 1-55.112199-6.3591l-124.258273-124.258273a45.683189 45.683189 0 1 1 64.614302-64.614301l124.258273 124.258272a44.806071 44.806071 0 0 1 12.425827 27.190634l100.795387-201.73696a45.756282 45.756282 0 0 1 40.859044-25.21712H607.625063a45.683189 45.683189 0 0 1 40.493579 28.725589L1020.820367 833.359212l0.146186 0.219279V833.651584z m-232.070597-108.17779L410.419875 347.070807 158.029395 473.2295l630.793467 252.317387zM601.046684 30.212211L474.961084 282.456505l378.549173 378.47608-252.39048-630.793467zM327.459205 199.495835a45.683189 45.683189 0 0 1-64.614302 0l-248.516545-248.516546a45.683189 45.683189 0 1 1 64.614301-64.614302l248.516546 248.516546a45.683189 45.683189 0 0 1 0 64.614302z"  horiz-adv-x="1024" />

    
    <glyph glyph-name="fapiaoyujing" unicode="&#59048;" d="M978.285714 482.742857c25.234286 0 45.714286 20.48 45.714286 45.787429v124.342857c0 59.465143-46.665143 107.885714-104.009143 107.885714H104.009143C46.665143 760.685714 0 712.338286 0 652.873143v-124.342857c0-25.307429 20.48-45.714286 45.714286-45.714286 39.058286 0 70.875429-35.254857 70.875428-78.628571S84.772571 325.485714 45.714286 325.485714A45.714286 45.714286 0 0 1 0 279.844571v-124.342857c0-59.538286 46.665143-107.885714 104.009143-107.885714h815.981714c57.344 0 104.009143 48.420571 104.009143 107.812571v124.342858a45.714286 45.714286 0 0 1-45.714286 45.787428c-39.058286 0-70.875429 35.254857-70.875428 78.628572s31.817143 78.628571 70.875428 78.628571z m-45.714285-241.810286v-85.504c0-9.654857-6.582857-16.384-12.580572-16.384H104.009143c-5.924571 0-12.580571 6.729143-12.580572 16.384v85.577143c67.291429 20.699429 116.589714 86.016 116.589715 163.108572S158.72 546.669714 91.428571 567.442286V652.873143c0 9.728 6.582857 16.457143 12.580572 16.457143h815.981714c5.924571 0 12.580571-6.729143 12.580572-16.457143v-85.577143c-67.291429-20.699429-116.589714-85.942857-116.589715-163.108571s49.298286-142.482286 116.589715-163.254858zM675.035429 244.589714h-3.657143V354.523429c0 87.990857-70.948571 159.597714-158.72 161.133714a45.641143 45.641143 0 0 1 45.056 45.568v48.566857a45.714286 45.714286 0 1 1-91.428572 0v-48.566857c0-24.502857 19.382857-44.105143 43.593143-45.348572a161.645714 161.645714 0 0 1-161.426286-161.353142v-109.933715h-3.657142a45.714286 45.714286 0 1 1 0-91.428571h330.24a45.714286 45.714286 0 1 1 0 91.428571zM439.881143 354.523429a70.070857 70.070857 0 0 0 139.995428 0v-109.933715H439.881143V354.523429zM642.706286 599.332571l-34.377143-34.377142a45.714286 45.714286 0 1 1 64.658286-64.585143l34.377142 34.377143a45.714286 45.714286 0 1 1-64.658285 64.585142zM346.770286 500.297143a45.568 45.568 0 0 1 64.658285 0 45.714286 45.714286 0 0 1 0 64.731428l-34.377142 34.377143a45.714286 45.714286 0 1 1-64.658286-64.658285l34.377143-34.377143z"  horiz-adv-x="1024" />

    
    <glyph glyph-name="fenfa" unicode="&#59049;" d="M1022.317714 115.785143a45.056 45.056 0 0 1-1.828571 26.112 45.348571 45.348571 0 0 1-7.314286 10.971428c-0.950857 1.243429-1.462857 2.706286-2.56 3.803429l-136.923428 136.996571a45.714286 45.714286 0 0 1-64.658286-64.658285l58.88-58.953143H729.892571c-55.369143 0-110.153143 53.76-168.228571 110.665143C525.019429 316.781714 485.668571 355.181714 441.417143 384c44.251429 28.818286 83.602286 67.218286 120.393143 103.277714 58.002286 56.905143 112.786286 110.665143 168.228571 110.665143h137.947429l-58.88-58.953143a45.714286 45.714286 0 0 1 64.658285-64.658285l136.923429 136.996571c1.097143 1.097143 1.536 2.56 2.486857 3.730286a45.202286 45.202286 0 0 1 7.314286 11.044571 45.056 45.056 0 0 1 1.901714 26.112c-0.585143 2.998857-0.731429 6.070857-1.828571 8.923429a45.348571 45.348571 0 0 1-7.753143 11.629714c-0.804571 1.024-1.170286 2.194286-2.121143 3.218286l-136.923429 136.923428a45.787429 45.787429 0 0 1-64.658285-64.658285l58.88-58.88H729.892571c-92.745143 0-163.693714-69.558857-232.155428-136.850286-64.365714-63.195429-125.147429-122.806857-195.803429-122.806857H45.714286a45.714286 45.714286 0 0 1 0-91.428572h256.219428c70.656 0 131.437714-59.611429 195.803429-122.806857 68.461714-67.291429 139.410286-136.777143 232.155428-136.777143h138.020572l-58.88-58.953143a45.860571 45.860571 0 0 1 32.329143-78.043428c11.702857 0 23.405714 4.461714 32.329143 13.385143l136.923428 136.923428c0.950857 0.950857 1.316571 2.194286 2.121143 3.145143 2.998857 3.657143 5.851429 7.314286 7.753143 11.702857 1.170286 2.925714 1.243429 5.851429 1.828571 8.923429z"  horiz-adv-x="1024" />

    
    <glyph glyph-name="hebing" unicode="&#59050;" d="M837.705143-128H556.470857a186.514286 186.514286 0 0 0-186.221714 186.294857V242.249143H186.294857A186.514286 186.514286 0 0 0 0 428.470857V709.705143A186.514286 186.514286 0 0 0 186.294857 896h281.234286a186.514286 186.514286 0 0 0 186.221714-186.294857v-183.954286h183.954286A186.514286 186.514286 0 0 0 1024 339.529143v-281.234286A186.514286 186.514286 0 0 0 837.705143-128zM186.294857 804.571429c-52.297143 0-94.866286-42.569143-94.866286-94.866286v-281.234286c0-52.297143 42.569143-94.793143 94.866286-94.793143h229.668572c25.234286 0 45.714286-20.48 45.714285-45.714285v-229.668572c0-52.297143 42.496-94.866286 94.793143-94.866286h281.234286c52.297143 0 94.866286 42.569143 94.866286 94.866286V339.529143c0 52.297143-42.569143 94.793143-94.866286 94.793143h-229.668572a45.714286 45.714286 0 0 0-45.714285 45.714285v229.668572c0 52.297143-42.496 94.866286-94.793143 94.866286H186.294857z"  horiz-adv-x="1024" />

    
    <glyph glyph-name="duqu-huoqu" unicode="&#59051;" d="M787.911726 672.345118a79.208057 79.208057 0 0 1-76.501964 62.971502H312.663386c-36.568817 0-69.480751-27.060924-76.721377-63.849153l-74.600385-425.8073c-0.219413-1.316477 0.219413-2.632955 0.073137-4.02257 0-1.316477-0.731376-2.48668-0.731376-3.876294v-132.891079a72.406257 72.406257 0 0 1 72.259981-72.259982h558.186416a72.406257 72.406257 0 0 1 72.259981 72.259982V237.761303c0 1.462753-0.731376 2.559817-0.731376 3.876294-0.146275 1.462753 0.292551 2.706092 0 4.02257l-74.746661 426.684951z m-463.985144-28.450539h376.219984l58.510107-333.800157H265.416475l58.510107 333.800157z m448.04114-519.862296H252.105426V218.672381h519.862296v-94.640098zM698.098712 171.352332m-31.741732 0a31.741733 31.741733 0 1 1 63.483465 0 31.741733 31.741733 0 1 1-63.483465 0ZM604.84823 171.352332m-31.741732 0a31.741733 31.741733 0 1 1 63.483465 0 31.741733 31.741733 0 1 1-63.483465 0ZM511.597748 171.352332m-31.741732 0a31.741733 31.741733 0 1 1 63.483465 0 31.741733 31.741733 0 1 1-63.483465 0ZM512.036574 338.032998c110.584101 0 197.252196 61.069924 197.252196 138.961502S622.620675 615.956003 512.036574 615.956003s-197.252196-61.069924-197.252196-138.961503 86.668095-138.961503 197.252196-138.961502z m0 186.500964c65.604457 0 105.830155-30.790944 105.830155-47.539462s-40.225698-47.539461-105.830155-47.539461-105.830155 30.790944-105.830155 47.539461 40.225698 47.539461 105.830155 47.539462zM834.866086 895.926862h-89.666738a45.711021 45.711021 0 1 1 0-91.422041h89.666738c53.829298 0 97.711878-43.88258 97.711878-97.711878v-89.739875a45.711021 45.711021 0 1 1 91.422041 0V706.866081A189.42647 189.42647 0 0 1 834.866086 895.926862zM45.784163 571.342047c25.232483 0 45.711021 20.478537 45.711021 45.711021V706.866081c0 53.829298 43.88258 97.711878 97.711878 97.711878h89.739876a45.711021 45.711021 0 1 1 0 91.422041H189.133924A189.42647 189.42647 0 0 1 0.073143 706.792943v-89.739875c0-25.232483 20.478537-45.637883 45.71102-45.637883zM278.946938-36.577959H189.133924c-53.829298 0-97.711878 43.88258-97.711877 97.711878v89.666738a45.711021 45.711021 0 1 1-91.422042 0v-89.666738A189.42647 189.42647 0 0 1 189.207062-128h89.739876a45.711021 45.711021 0 1 1 0 91.422041zM978.288985 196.511678a45.711021 45.711021 0 0 1-45.711021-45.637883v-89.739876c0-53.829298-43.88258-97.711878-97.711878-97.711878h-89.666738a45.711021 45.711021 0 1 1 0-91.422041h89.666738A189.42647 189.42647 0 0 1 1024.000005 61.133919v89.666738a45.711021 45.711021 0 0 1-45.71102 45.784158z"  horiz-adv-x="1024" />

    
    <glyph glyph-name="heimingdan" unicode="&#59052;" d="M429.494857-36.571429H163.401143V804.571429H517.12L695.588571 626.249143v-212.406857a45.714286 45.714286 0 0 1 91.428572 0V645.12a45.714286 45.714286 0 0 1-13.385143 32.329143L568.393143 882.614857A45.787429 45.787429 0 0 1 536.137143 896H117.76a45.714286 45.714286 0 0 1-45.714286-45.714286v-932.571428c0-25.234286 20.48-45.714286 45.714286-45.714286h311.808a45.714286 45.714286 0 0 1 0 91.428571zM475.428571 612.571429h-219.428571a45.714286 45.714286 0 0 1 0-91.428572h219.428571a45.714286 45.714286 0 0 1 0 91.428572zM475.428571 393.142857h-219.428571a45.714286 45.714286 0 0 1 0-91.428571h219.428571a45.714286 45.714286 0 0 1 0 91.428571zM890.294857 239.542857c-79.725714 79.725714-218.550857 79.506286-297.984 0-39.862857-39.789714-61.805714-92.672-61.805714-148.992s21.942857-109.202286 61.732571-148.992a209.261714 209.261714 0 0 1 149.065143-61.732571c56.32 0 109.202286 21.942857 148.992 61.732571 39.789714 39.789714 61.732571 92.745143 61.732572 148.992s-21.942857 109.202286-61.732572 148.992z m-233.325714-64.585143a118.345143 118.345143 0 0 0 84.333714 34.962286c15.872 0 31.305143-3.145143 45.568-9.069714l-155.940571-155.940572a119.076571 119.076571 0 0 0 25.965714 130.048z m168.594286-168.740571c-33.718857-33.718857-86.235429-42.203429-129.462858-25.380572l155.428572 155.355429c5.924571-14.262857 9.069714-29.696 9.069714-45.641143 0-31.817143-12.434286-61.805714-35.035428-84.333714z"  horiz-adv-x="1024" />

    
    <glyph glyph-name="jigou" unicode="&#59053;" d="M978.285714 212.114286H899.657143V352.914286a45.714286 45.714286 0 0 1-45.714286 45.714285h-296.228571V493.714286h109.714285c25.234286 0 45.714286 20.48 45.714286 45.714285V850.285714A45.714286 45.714286 0 0 1 667.428571 896h-310.857142a45.714286 45.714286 0 0 1-45.714286-45.714286v-310.857143c0-25.234286 20.48-45.714286 45.714286-45.714285h109.714285v-95.085715h-296.228571a45.714286 45.714286 0 0 1-45.714286-45.714285V212.114286H45.714286A45.714286 45.714286 0 0 1 0 166.4v-248.685714c0-25.234286 20.48-45.714286 45.714286-45.714286h248.685714c25.234286 0 45.714286 20.48 45.714286 45.714286v248.685714a45.714286 45.714286 0 0 1-45.714286 45.714286H215.771429v95.085714h592.457142v-95.085714H729.6a45.714286 45.714286 0 0 1-45.714286-45.714286v-248.685714c0-25.234286 20.48-45.714286 45.714286-45.714286h248.685714c25.234286 0 45.714286 20.48 45.714286 45.714286v248.685714a45.714286 45.714286 0 0 1-45.714286 45.714286zM402.285714 804.571429h219.428572v-219.428572h-219.428572v219.428572z m-153.6-841.142858H91.428571V120.685714H248.685714v-157.257143z m683.885715 0H775.314286V120.685714h157.257143v-157.257143z"  horiz-adv-x="1024" />

    
    <glyph glyph-name="huanyuan" unicode="&#59054;" d="M526.336 590.482286V795.428571a45.714286 45.714286 0 0 1-76.8 33.499429L14.555429 424.594286a45.714286 45.714286 0 0 1 0-66.925715l434.980571-404.333714a45.568 45.568 0 0 1 76.8 33.426286V187.977143a544.694857 544.694857 0 0 0 408.137143-240.859429 45.641143 45.641143 0 0 1 83.090286 18.432c4.315429 27.355429 6.436571 55.442286 6.436571 83.382857 0 284.233143-219.355429 518.217143-497.664 541.549715z m-45.714286-309.174857a45.714286 45.714286 0 0 1-45.714285-45.714286v-143.872L112.859429 391.094857l322.048 299.446857v-143.945143c0-25.234286 20.48-45.714286 45.714285-45.714285a452.681143 452.681143 0 0 0 449.609143-405.211429A635.830857 635.830857 0 0 1 480.548571 281.307429z"  horiz-adv-x="1024" />

    
    <glyph glyph-name="hongzixinxi" unicode="&#59055;" d="M978.285714 462.628571c25.234286 0 45.714286 20.48 45.714286 45.714286V632.685714c0 59.465143-46.665143 107.885714-104.009143 107.885715H104.009143C46.665143 740.571429 0 692.150857 0 632.685714v-124.342857c0-25.234286 20.48-45.714286 45.714286-45.714286 39.058286 0 70.875429-35.254857 70.875428-78.628571S84.772571 305.371429 45.714286 305.371429A45.714286 45.714286 0 0 1 0 259.657143v-124.342857c0-59.465143 46.665143-107.885714 104.009143-107.885715h815.981714c57.344 0 104.009143 48.420571 104.009143 107.885715V259.657143a45.714286 45.714286 0 0 1-45.714286 45.714286c-39.058286 0-70.875429 35.254857-70.875428 78.628571s31.817143 78.628571 70.875428 78.628571zM932.571429 220.891429V135.314286c0-9.728-6.582857-16.457143-12.580572-16.457143H104.009143c-5.924571 0-12.580571 6.729143-12.580572 16.457143V220.891429C158.72 241.590857 208.018286 306.834286 208.018286 384S158.72 526.482286 91.428571 547.181714v85.577143c0 9.654857 6.582857 16.384 12.580572 16.384h815.981714c5.924571 0 12.580571-6.729143 12.580572-16.457143v-85.504c-67.291429-20.699429-116.589714-86.016-116.589715-163.181714s49.298286-142.409143 116.589715-163.181714zM512 617.472a232.521143 232.521143 0 0 1-232.228571-232.228571c0-61.220571 24.283429-116.589714 63.195428-158.134858 1.609143-2.413714 2.706286-5.12 4.827429-7.314285 2.56-2.486857 5.705143-3.876571 8.630857-5.705143A230.546286 230.546286 0 0 1 512 153.014857c128 0 232.228571 104.228571 232.228571 232.228572S640 617.472 512 617.472z m0-91.428571c22.454857 0 43.373714-5.778286 62.244571-15.140572L386.340571 322.998857a139.117714 139.117714 0 0 0-15.140571 62.244572c0 77.677714 63.122286 140.8 140.8 140.8z m0-281.6c-21.796571 0-42.203429 5.412571-60.708571 14.336l187.245714 187.099428c8.850286-18.432 14.262857-38.765714 14.262857-60.635428A140.946286 140.946286 0 0 0 512 244.443429z"  horiz-adv-x="1024" />

    
    <glyph glyph-name="jiahao" unicode="&#59056;" d="M804.571429 429.714286H557.714286V676.571429a45.714286 45.714286 0 0 1-91.428572 0v-246.857143H219.428571a45.714286 45.714286 0 0 1 0-91.428572h246.857143V91.428571a45.714286 45.714286 0 0 1 91.428572 0V338.285714H804.571429a45.714286 45.714286 0 0 1 0 91.428572z"  horiz-adv-x="1024" />

    
    <glyph glyph-name="jijiangyuqifapiao" unicode="&#59057;" d="M978.212571 463.140571c25.307429 0 45.787429 20.48 45.787429 45.714286v124.342857c0 59.465143-46.665143 107.885714-104.009143 107.885715H104.009143c-57.344 0-104.009143-48.420571-104.009143-107.885715v-124.342857c0-25.234286 20.48-45.714286 45.714286-45.714286 39.058286 0 70.875429-35.254857 70.875428-78.628571S84.772571 305.883429 45.641143 305.883429a45.714286 45.714286 0 0 1-45.641143-45.714286v-124.342857c0-59.465143 46.665143-107.885714 104.009143-107.885715h815.981714c57.344 0 104.009143 48.420571 104.009143 107.885715v124.342857a45.714286 45.714286 0 0 1-45.714286 45.714286c-39.058286 0-70.875429 35.254857-70.875428 78.628571s31.817143 78.628571 70.875428 78.628571z m-45.641142-241.810285v-85.504c0-9.728-6.656-16.457143-12.580572-16.457143H104.009143c-5.924571 0-12.580571 6.729143-12.580572 16.457143v85.577143c67.291429 20.699429 116.589714 85.942857 116.589715 163.108571S158.72 526.994286 91.428571 547.84V633.197714c0 9.728 6.582857 16.457143 12.580572 16.457143h815.981714c5.924571 0 12.580571-6.729143 12.580572-16.457143V547.84c-67.291429-20.772571-116.589714-86.089143-116.589715-163.254857s49.298286-142.409143 116.589715-163.108572zM512 617.984c-128 0-232.228571-104.155429-232.228571-232.228571s104.155429-232.228571 232.228571-232.228572 232.228571 104.228571 232.228571 232.228572S640 618.057143 512 618.057143z m0-373.028571c-77.677714 0-140.8 63.195429-140.8 140.8S434.322286 526.628571 512 526.628571 652.726857 463.433143 652.726857 385.755429 589.604571 245.028571 512 245.028571zM558.665143 431.542857H557.641143V479.085714a45.714286 45.714286 0 1 1-91.428572 0v-93.330285c0-25.234286 20.48-45.714286 45.714286-45.714286h46.665143a45.714286 45.714286 0 1 1 0 91.428571z"  horiz-adv-x="1025" />

    
    <glyph glyph-name="jiankongxinxifanxie" unicode="&#59058;" d="M978.285714 769.828571h-90.112v80.457143A45.714286 45.714286 0 0 1 842.459429 896H45.714286A45.714286 45.714286 0 0 1 0 850.285714v-252.342857c0-25.234286 20.48-45.714286 45.714286-45.714286h796.745143c25.234286 0 45.714286 20.48 45.714285 45.714286v80.457143h44.397715v-160.768H507.465143a45.714286 45.714286 0 0 1-45.714286-45.714286v-139.702857h-26.697143a45.714286 45.714286 0 0 1-45.714285-45.714286v-368.786285c0-25.234286 20.48-45.714286 45.714285-45.714286h144.822857c25.234286 0 45.714286 20.48 45.714286 45.714286V286.500571a45.714286 45.714286 0 0 1-45.714286 45.714286h-26.697142V426.203429h425.106285c25.234286 0 45.714286 20.48 45.714286 45.714285V724.114286a45.714286 45.714286 0 0 1-45.714286 45.714285zM796.745143 643.657143H91.428571v160.914286h705.316572v-160.914286z m-262.582857-680.228572h-53.394286V240.786286h53.394286v-277.357715z"  horiz-adv-x="1024" />

    
    <glyph glyph-name="jianhao" unicode="&#59059;" d="M804.571429 310.857143H219.428571a45.714286 45.714286 0 0 0 0 91.428571h585.142858A45.714286 45.714286 0 0 0 804.571429 310.857143z"  horiz-adv-x="1024" />

    
    <glyph glyph-name="jiankong" unicode="&#59060;" d="M512 896C229.668571 896 0 666.331429 0 384c0-96.329143 27.209143-186.221714 73.728-263.314286a106.569143 106.569143 0 0 1-11.556571-47.542857c0-59.465143 48.420571-107.885714 107.885714-107.885714 13.604571 0 26.477714 2.779429 38.4 7.314286A508.562286 508.562286 0 0 1 512-128c282.331429 0 512 229.668571 512 512s-229.668571 512-512 512z m417.938286-466.285714h-97.060572a324.315429 324.315429 0 0 1-216.868571 261.193143 107.812571 107.812571 0 0 1-58.294857 70.217142v40.813715a421.229714 421.229714 0 0 0 372.297143-372.224z m-759.881143-248.685715c-8.411429 0-16.457143-1.170286-24.356572-2.998857a417.206857 417.206857 0 0 0-51.638857 160.256h97.060572a324.169143 324.169143 0 0 1 275.163428-275.163428v-97.060572a417.645714 417.645714 0 0 0-194.340571 73.142857c3.584 10.678857 5.997714 21.942857 5.997714 33.938286 0 59.465143-48.347429 107.885714-107.885714 107.885714z m254.756571 419.84c10.605714-14.774857 24.868571-26.624 41.472-34.377142V481.28c-22.674286-10.678857-40.96-28.964571-51.638857-51.638857H282.550857a234.496 234.496 0 0 0 142.262857 171.154286z m-10.166857-262.582857c10.678857-22.674286 28.964571-40.96 51.638857-51.638857v-132.096a234.569143 234.569143 0 0 0-183.734857 183.734857h132.096z m143.067429-51.638857c22.674286 10.678857 40.96 28.964571 51.638857 51.638857h132.096a234.569143 234.569143 0 0 0-183.734857-183.734857V286.72z m51.638857 143.067429a108.032 108.032 0 0 1-51.638857 51.638857V566.418286c16.603429 7.826286 30.866286 19.675429 41.472 34.377143a234.496 234.496 0 0 0 142.262857-171.081143H609.353143z m-143.067429 372.297143v-40.886858a107.812571 107.812571 0 0 1-58.294857-70.217142 324.315429 324.315429 0 0 1-216.868571-261.193143H94.061714a421.229714 421.229714 0 0 0 372.224 372.297143z m91.428572-836.022858v97.133715a324.169143 324.169143 0 0 1 275.163428 275.163428h97.060572a421.229714 421.229714 0 0 0-372.224-372.297143z"  horiz-adv-x="1024" />

    
    <glyph glyph-name="jiance" unicode="&#59061;" d="M1010.467503-49.883596l-133.192857 132.388288a290.669091 290.669091 0 0 1 60.489013 176.420193c0 90.623806-42.203338 170.715063-107.154056 224.840661V850.283618A45.714188 45.714188 0 0 1 784.895415 895.997806H45.715285A45.714188 45.714188 0 0 1 0.001097 850.283618v-645.850045c0-25.234232 20.479956-45.714188 45.714188-45.714187H363.520318c2.121138-5.705131 3.657135-11.702832 6.070844-17.261678v-14.043398c-36.132494-13.385114-64.73129-41.691339-78.262689-77.750691H45.788428a45.714188 45.714188 0 1 1 0-91.428375h245.68633A132.388288 132.388288 0 0 1 415.30535-128a132.388288 132.388288 0 0 1 130.340292 109.348337c30.134793-10.313121 61.951867-17.115392 95.59751-17.115392a295.49651 295.49651 0 0 1 170.568777 54.345027l134.289998-133.266001a45.567902 45.567902 0 0 1 64.585004 0.219429 45.714188 45.714188 0 0 1-0.219428 64.585004zM641.243152 553.689968c-82.651251 0-157.256806-33.86507-211.089834-88.210097H91.429473V589.310463h647.751754v-53.540457a294.618797 294.618797 0 0 1-98.011218 17.846819zM91.429473 804.56943h647.751754v-123.830592H91.429473V804.56943z m0-554.421669V373.978353h276.845121a291.400518 291.400518 0 0 1-23.625093-115.053468c0-2.925708 0.80457-5.778273 0.950856-8.777124H91.429473z m323.875877-286.719385c-22.674237 0-41.17934 18.212532-41.17934 40.521056s18.505103 40.594199 41.17934 40.594198 41.17934-18.285675 41.17934-40.594198-18.431961-40.521056-41.17934-40.521056z m20.772527 295.496509c0 112.12776 92.013517 203.336707 205.165275 203.336707s205.092132-91.208947 205.092132-203.336707-92.013517-203.336707-205.092132-203.336707-205.165275 91.208947-205.165275 203.336707z"  horiz-adv-x="1024" />

    
    <glyph glyph-name="jianyifankui" unicode="&#59062;" d="M210.651429-2.194286a51.638857 51.638857 0 0 1 6.217142 0.365715l156.964572 21.211428a62.829714 62.829714 0 0 1 35.035428 17.700572l416.475429 416.987428c22.528 22.674286 23.04 58.075429 4.096 83.529143l14.994286 15.067429a67.510857 67.510857 0 0 1 37.814857-12.946286h0.146286c18.432 0 35.766857 7.314286 48.64 20.187428l71.094857 71.314286a69.12 69.12 0 0 1 0 97.28L895.780571 834.925714a70.582857 70.582857 0 0 1-97.426285 0.146286l-4.608-4.608-52.004572 52.077714a45.641143 45.641143 0 0 1-64.731428 0l-293.595429-294.034285h-57.782857a45.714286 45.714286 0 0 1 0-91.428572H402.285714a45.641143 45.641143 0 0 1 32.329143 13.458286l274.651429 275.017143 19.748571-19.748572-1.828571-1.901714a68.461714 68.461714 0 0 1-20.187429-48.713143c0-13.970286 5.266286-26.697143 12.946286-38.034286l-14.994286-14.994285c-25.6 19.017143-60.854857 18.432-83.529143-4.242286L204.507429 240.420571a63.049143 63.049143 0 0 1-17.554286-35.474285l-21.504-155.136a45.641143 45.641143 0 0 1 45.275428-52.004572z m636.416 756.516572L921.6 679.789714l-39.277714-39.204571-7.168 7.241143h-0.073143l-59.757714 59.977143-7.387429 7.314285 39.204571 39.204572zM276.187429 182.857143l390.436571 390.948571 7.168-7.168 0.146286-0.219428 59.757714-59.830857 7.460571-7.387429-390.144-390.656-86.747428-11.702857 11.922286 86.016zM396.361143 164.717714L664.868571 433.737143a45.714286 45.714286 0 1 1-64.731428 64.585143L331.629714 229.229714a45.714286 45.714286 0 1 1 64.731429-64.585143zM978.285714-36.571429H45.714286a45.714286 45.714286 0 0 1 0-91.428571h932.571428a45.714286 45.714286 0 0 1 0 91.428571z"  horiz-adv-x="1024" />

    
    <glyph glyph-name="jinru" unicode="&#59063;" d="M991.012571 883.931429a72.777143 72.777143 0 0 1-37.302857 11.849142c-0.438857 0-0.731429 0.219429-1.243428 0.219429H411.355429c-58.221714 0-105.545143-47.323429-105.545143-105.545143v-38.473143a45.714286 45.714286 0 1 1 91.428571 0v38.473143c0 7.68 6.436571 14.116571 14.116572 14.116572h303.908571l-63.926857-26.916572c-41.545143-17.554286-72.923429-63.122286-72.923429-106.057143v-589.531428H411.355429a14.336 14.336 0 0 0-14.116572 14.043428v41.252572a45.714286 45.714286 0 1 1-91.428571 0v-41.252572c0-58.148571 47.323429-105.545143 105.545143-105.545143h167.058285v-43.008c0-26.697143 11.776-49.810286 32.402286-63.488a73.142857 73.142857 0 0 1 40.96-12.068571c11.410286 0 23.332571 2.486857 35.108571 7.387429l263.533715 110.957714c41.545143 17.554286 72.923429 63.122286 72.923428 106.057143V820.443429c0 26.697143-11.702857 49.810286-32.329143 63.488z m-59.099428-787.529143c0-4.973714-7.753143-17.92-16.969143-21.796572l-245.028571-103.131428v64.658285 0.146286 635.318857c0 4.973714 7.68 17.92 16.969142 21.796572l245.028572 103.131428v-700.123428zM311.734857 285.769143a45.568 45.568 0 0 1 64.658286 0l125.220571 125.220571a45.714286 45.714286 0 0 1 0 64.585143L376.393143 600.795429a45.714286 45.714286 0 1 1-64.658286-64.585143l47.177143-47.177143H46.08a45.714286 45.714286 0 1 1 0-91.428572h312.832l-47.177143-47.177142a45.714286 45.714286 0 0 1 0-64.658286zM748.105143 272.384c25.234286 0 45.714286 20.48 45.714286 45.714286V415.670857a45.714286 45.714286 0 1 1-91.428572 0v-97.572571c0-25.307429 20.48-45.714286 45.714286-45.714286z"  horiz-adv-x="1024" />

    
    <glyph glyph-name="mingxi" unicode="&#59064;" d="M365.714286 569.051429m-45.714286 0a45.714286 45.714286 0 1 1 91.428571 0 45.714286 45.714286 0 1 1-91.428571 0ZM856.064 677.449143L650.971429 882.614857A45.787429 45.787429 0 0 1 618.569143 896H200.265143a45.714286 45.714286 0 0 1-45.714286-45.714286v-932.571428c0-25.234286 20.48-45.714286 45.714286-45.714286h623.469714c25.161143 0 45.714286 20.48 45.714286 45.714286V645.12a45.714286 45.714286 0 0 1-13.385143 32.329143z m-78.043429-714.020572H245.979429V804.571429h353.645714l178.395428-178.322286v-662.820572zM466.285714 569.051429c0-25.234286 20.48-45.714286 45.714286-45.714286h146.285714a45.714286 45.714286 0 0 1 0 91.428571H512a45.714286 45.714286 0 0 1-45.714286-45.714285zM365.714286 349.622857m-45.714286 0a45.714286 45.714286 0 1 1 91.428571 0 45.714286 45.714286 0 1 1-91.428571 0ZM658.285714 395.337143H512a45.714286 45.714286 0 0 1 0-91.428572h146.285714a45.714286 45.714286 0 0 1 0 91.428572zM365.714286 130.194286m-45.714286 0a45.714286 45.714286 0 1 1 91.428571 0 45.714286 45.714286 0 1 1-91.428571 0ZM658.285714 175.908571H512a45.714286 45.714286 0 0 1 0-91.428571h146.285714a45.714286 45.714286 0 0 1 0 91.428571z"  horiz-adv-x="1024" />

    
    <glyph glyph-name="jiebang" unicode="&#59065;" d="M916.260571 575.634286H686.957714c-50.468571 0-91.574857-41.106286-91.574857-91.648a45.714286 45.714286 0 0 1 91.574857 0.146285l229.449143-0.146285-0.146286-210.578286L686.811429 273.554286a45.714286 45.714286 0 0 1-91.428572 0c0-50.468571 41.033143-91.574857 91.574857-91.574857h229.302857c50.468571 0 91.574857 41.106286 91.574858 91.574857V483.986286c0 50.468571-41.033143 91.574857-91.574858 91.574857zM337.188571 483.986286a45.714286 45.714286 0 0 1 91.428572 0c0 50.468571-41.033143 91.574857-91.574857 91.574857H107.739429C57.270857 575.634286 16.091429 534.528 16.091429 483.986286V273.554286c0-50.468571 41.033143-91.574857 91.574857-91.574857h229.302857c50.468571 0 91.574857 41.106286 91.574857 91.574857a45.714286 45.714286 0 0 1-91.574857-0.146286L107.593143 273.554286l0.146286 210.651428 229.449142-0.219428zM516.608 896a45.714286 45.714286 0 0 1-45.714286-45.714286v-145.334857a45.714286 45.714286 0 0 1 91.428572 0V850.285714A45.714286 45.714286 0 0 1 516.608 896zM679.350857 659.236571c11.702857 0 23.405714 4.388571 32.256 13.385143l86.089143 86.016a45.714286 45.714286 0 1 1-64.585143 64.585143L647.094857 737.28a45.714286 45.714286 0 0 1 32.256-78.043429zM319.195429 672.621714a45.421714 45.421714 0 0 1 64.658285 0 45.714286 45.714286 0 0 1 0 64.658286L297.691429 823.222857a45.714286 45.714286 0 1 1-64.585143-64.585143l86.089143-86.016zM516.608 108.763429a45.714286 45.714286 0 0 1-45.714286-45.714286v-145.334857a45.714286 45.714286 0 0 1 91.428572 0v145.334857a45.714286 45.714286 0 0 1-45.714286 45.714286zM711.68 95.378286a45.714286 45.714286 0 1 1-64.585143-64.658286l86.016-85.942857a45.421714 45.421714 0 0 1 64.658286 0 45.714286 45.714286 0 0 1 0 64.585143l-86.162286 86.016zM319.195429 95.378286l-86.089143-86.016a45.714286 45.714286 0 1 1 64.585143-64.585143l86.089142 85.942857a45.714286 45.714286 0 1 1-64.585142 64.658286z"  horiz-adv-x="1024" />

    
    <glyph glyph-name="kaiju" unicode="&#59066;" d="M620.762542 103.131098c25.23425 0 45.71422 20.479971 45.71422 45.641078V455.752309a45.71422 45.71422 0 0 1-91.428441 0v-306.980133c0-25.23425 20.479971-45.71422 45.714221-45.71422zM407.039419 103.131098c25.23425 0 45.71422 20.479971 45.71422 45.641078V619.006933a45.71422 45.71422 0 0 1-91.428441 0v-470.234757c0-25.23425 20.479971-45.71422 45.714221-45.71422zM885.027307 150.015603h-22.235397V791.9164c0 57.343918-48.420502 104.008994-107.958703 104.008994h-124.342679a45.71422 45.71422 0 0 1-45.714221-45.71422c0-39.05823-35.181664-70.875327-78.555316-70.875327S427.592532 811.152944 427.592532 850.211174A45.71422 45.71422 0 0 1 381.805169 895.925394h-124.34268c-59.538201 0-107.88556-46.665076-107.88556-104.008994V149.94246H138.97123c-76.580462 0-138.97123-62.317625-138.97123-138.97123s62.390768-138.97123 138.97123-138.97123h746.056077c76.580462 0 138.97123 62.317625 138.97123 138.97123s-62.390768 138.97123-138.97123 138.97123zM241.078513 791.9164c0 5.924563 6.729133 12.580553 16.457119 12.580554h85.430735c20.772542-67.291332 86.08902-116.589548 163.254624-116.589548s142.408939 49.298215 163.108339 116.589548h85.57702c9.654843 0 16.457119-6.65599 16.457119-12.580554V-36.571559h-530.284956V791.9164zM91.428441 10.97123c0 26.258248 21.357684 47.542789 47.542789 47.542789h10.678842v-95.085578H138.97123a47.615932 47.615932 0 0 0-47.542789 47.542789z m793.598866-47.542789h-22.235397v95.085578h22.235397a47.615932 47.615932 0 0 0 0-95.085578z"  horiz-adv-x="1024" />

    
    <glyph glyph-name="linggou" unicode="&#59067;" d="M1007.104 664.356571c-22.893714 35.547429-65.389714 55.149714-119.808 55.149715H290.011429C255.634286 839.826286 173.787429 855.990857 112.420571 855.990857H45.714286a45.714286 45.714286 0 0 1 0-91.428571h66.706285c37.595429 0 80.091429 0 96.768-98.377143L233.106286 522.971429c15.872-95.670857 31.451429-189.147429 40.667428-237.860572 8.045714-42.130286 32.548571-170.569143 153.746286-170.569143h389.705143a45.714286 45.714286 0 0 1 0 91.428572H427.52c-12.873143 0-32.329143 0.219429-49.005714 42.057143h380.123428c77.092571 0 135.460571 35.913143 164.425143 101.156571l11.044572 24.868571c19.382857 43.666286 50.761143 114.322286 74.898285 166.985143 20.699429 45.348571 20.041143 89.088-1.901714 123.318857z m-81.188571-85.284571c-24.283429-52.955429-55.808-123.904-75.337143-167.862857l-11.044572-24.868572c-14.262857-32.036571-39.936-46.884571-80.896-46.884571H357.376l-49.005714 288.621714h578.925714c25.380571 0 38.765714-6.729143 42.861714-13.165714 4.388571-6.875429 2.852571-20.333714-4.315428-35.84zM427.446857 82.797714a85.430857 85.430857 0 1 1 0-170.788571 85.430857 85.430857 0 0 1 0 170.788571zM769.170286 82.797714a85.430857 85.430857 0 1 1 0-170.788571 85.430857 85.430857 0 0 1 0 170.788571z"  horiz-adv-x="1024" />

    
    <glyph glyph-name="piliangdahui" unicode="&#59068;" d="M978.285714 709.485714H837.485714V850.285714A45.714286 45.714286 0 0 1 791.771429 896H45.714286A45.714286 45.714286 0 0 1 0 850.285714v-746.057143c0-25.234286 20.48-45.714286 45.714286-45.714285H186.514286v-140.8c0-25.234286 20.48-45.714286 45.714285-45.714286h746.057143c25.234286 0 45.714286 20.48 45.714286 45.714286v746.057143a45.714286 45.714286 0 0 1-45.714286 45.714285zM186.514286 663.771429V149.942857h-95.085715V804.571429h654.628572v-95.085715H232.228571a45.714286 45.714286 0 0 1-45.714285-45.714285z m746.057143-700.342858H277.942857V618.057143H932.571429v-654.628572zM579.072 413.842286a45.714286 45.714286 0 1 1-64.658286 64.658285L359.131429 323.072a45.641143 45.641143 0 0 1-9.947429-49.737143 45.641143 45.641143 0 0 1 9.947429-14.921143l155.355428-155.428571a45.568 45.568 0 0 1 64.658286 0 45.714286 45.714286 0 0 1 0 64.658286L501.686857 245.028571h313.782857a45.714286 45.714286 0 1 1 0 91.428572H501.76l77.385143 77.385143z"  horiz-adv-x="1024" />

    
    <glyph glyph-name="piliangdaochu" unicode="&#59069;" d="M978.285714 464.457143a45.714286 45.714286 0 0 1-45.714285-45.714286V149.942857H277.942857V804.571429h268.8a45.714286 45.714286 0 0 1 0 91.428571h-314.514286a45.714286 45.714286 0 0 1-45.714285-45.714286V709.485714H45.714286A45.714286 45.714286 0 0 1 0 663.771429v-746.057143c0-25.234286 20.48-45.714286 45.714286-45.714286h746.057143c25.234286 0 45.714286 20.48 45.714285 45.714286V58.514286h140.8c25.234286 0 45.714286 20.48 45.714286 45.714285v314.514286a45.714286 45.714286 0 0 1-45.714286 45.714286zM746.057143-36.571429H91.428571V618.057143h95.085715v-513.828572c0-25.234286 20.48-45.714286 45.714285-45.714285H746.057143v-95.085715zM463.36 455.68a45.714286 45.714286 0 0 1 91.428571 0 247.149714 247.149714 0 0 0 246.857143 246.784h56.539429l-20.041143-20.041143a45.714286 45.714286 0 1 1 64.731429-64.585143l97.938285 98.084572a45.714286 45.714286 0 0 1 0 64.585143L902.802286 878.445714a45.714286 45.714286 0 1 1-64.658286-64.512l20.041143-20.114285h-56.539429A338.651429 338.651429 0 0 1 463.36 455.68z"  horiz-adv-x="1024" />

    
    <glyph glyph-name="moumoudanguanli" unicode="&#59070;" d="M429.494857 23.113143H163.474286V804.571429H517.12l178.322286-178.322286v-212.406857a45.714286 45.714286 0 1 1 91.428571 0V645.12a45.714286 45.714286 0 0 1-13.385143 32.329143L568.393143 882.614857A45.714286 45.714286 0 0 1 536.137143 896H117.76a45.714286 45.714286 0 0 1-45.714286-45.714286v-872.886857c0-25.234286 20.48-45.714286 45.714286-45.714286h311.734857a45.714286 45.714286 0 1 1 0 91.428572zM943.177143 101.961143h-0.073143l-73.874286 129.316571a67.291429 67.291429 0 0 1-58.441143 33.938286H663.332571a67.291429 67.291429 0 0 1-58.368-33.865143L531.017143 101.961143a67.510857 67.510857 0 0 1 0-66.706286l73.874286-129.316571a67.291429 67.291429 0 0 1 58.514285-33.938286h147.382857a67.291429 67.291429 0 0 1 58.368 33.865143l73.947429 129.316571a67.584 67.584 0 0 1 0 66.779429z m-146.358857-138.532572H677.302857l-60.123428 105.179429 60.123428 105.179429h119.442286l60.050286-105.179429-60.050286-105.179429zM737.060571 125.074286a56.393143 56.393143 0 1 1 0-112.859429 56.393143 56.393143 0 0 1 0 112.786286zM475.428571 612.571429h-219.428571a45.714286 45.714286 0 1 1 0-91.428572h219.428571a45.714286 45.714286 0 1 1 0 91.428572zM475.428571 393.142857h-219.428571a45.714286 45.714286 0 1 1 0-91.428571h219.428571a45.714286 45.714286 0 1 1 0 91.428571z"  horiz-adv-x="1024" />

    
    <glyph glyph-name="piliangdaoru" unicode="&#59071;" d="M978.285714 709.485714H837.485714V850.285714A45.714286 45.714286 0 0 1 791.771429 896h-314.514286a45.714286 45.714286 0 0 1 0-91.428571H746.057143V149.942857H91.428571V418.742857a45.714286 45.714286 0 0 1-91.428571 0v-314.514286c0-25.234286 20.48-45.714286 45.714286-45.714285H186.514286v-140.8c0-25.234286 20.48-45.714286 45.714285-45.714286h746.057143c25.234286 0 45.714286 20.48 45.714286 45.714286v746.057143a45.714286 45.714286 0 0 1-45.714286 45.714285z m-45.714285-746.057143H277.942857v95.085715h513.828572c25.234286 0 45.714286 20.48 45.714285 45.714285V618.057143h95.085715v-654.628572zM344.137143 509.659429h56.466286l-20.041143-20.041143a45.714286 45.714286 0 0 1 64.731428-64.658286l98.011429 98.084571a45.860571 45.860571 0 0 1 0 64.658286l-98.011429 98.084572a45.714286 45.714286 0 0 1-64.731428-64.658286l20.041143-20.041143h-56.466286A247.149714 247.149714 0 0 0 97.28 847.945143a45.714286 45.714286 0 0 1-91.428571 0 338.651429 338.651429 0 0 1 338.285714-338.285714z"  horiz-adv-x="1024" />

    
    </font>
</defs>
</svg>
